<?xml version="1.0" encoding="UTF-8"?>
<!DOCTYPE svg PUBLIC "-//W3C//DTD SVG 1.1//EN" "http://www.w3.org/Graphics/SVG/1.1/DTD/svg11.dtd">
<svg xmlns="http://www.w3.org/2000/svg" version="1.1" width="1816px" height="253px" style="shape-rendering:geometricPrecision; text-rendering:geometricPrecision; image-rendering:optimizeQuality; fill-rule:evenodd; clip-rule:evenodd" xmlns:xlink="http://www.w3.org/1999/xlink">
<g><path style="opacity:0.973" fill="#fdfdfd" d="M 870.5,-0.5 C 877.5,-0.5 884.5,-0.5 891.5,-0.5C 907.499,-0.201732 923.166,2.6316 938.5,8C 949.391,13.2249 957.225,21.3916 962,32.5C 962.333,23.8333 962.667,15.1667 963,6.5C 964.167,5.33333 965.333,4.16667 966.5,3C 1018.17,2.33333 1069.83,2.33333 1121.5,3C 1123.46,4.45095 1124.8,6.28428 1125.5,8.5C 1125.5,13.1667 1125.5,17.8333 1125.5,22.5C 1124.57,23.5676 1124.23,24.901 1124.5,26.5C 1119.81,29.5139 1114.81,32.0139 1109.5,34C 1099.2,34.1793 1088.87,34.846 1078.5,36C 1063.12,40.0803 1055.12,50.0803 1054.5,66C 1055.74,70.9156 1055.58,75.7489 1054,80.5C 1050.6,84.2027 1046.44,85.3694 1041.5,84C 1033.92,80.2728 1025.92,78.7728 1017.5,79.5C 1017.74,78.209 1017.4,77.209 1016.5,76.5C 1016.5,73.1667 1016.5,69.8333 1016.5,66.5C 1016.5,60.5 1016.5,54.5 1016.5,48.5C 999.497,48.6666 982.497,48.4999 965.5,48C 965,47.5 964.5,47 964,46.5C 962.833,47.6667 961.667,48.8333 960.5,50C 947.833,50.3333 935.167,50.6667 922.5,51C 933.575,52.691 943.909,56.3577 953.5,62C 963.379,70.303 966.879,80.803 964,93.5C 958.512,110.98 946.679,121.48 928.5,125C 920.737,126.734 913.071,128.234 905.5,129.5C 901.5,129.5 897.5,129.5 893.5,129.5C 893.44,114.95 886.773,104.784 873.5,99C 854.827,93.943 835.827,91.6097 816.5,92C 810.944,93.6397 805.278,94.473 799.5,94.5C 796.163,88.8786 796.829,83.8786 801.5,79.5C 813.171,79.6665 824.838,79.4999 836.5,79C 822.8,77.3334 811.3,71.5001 802,61.5C 793.483,41.0546 798.316,24.5546 816.5,12C 821.844,8.88528 827.511,6.55195 833.5,5C 845.836,2.16707 858.17,0.333733 870.5,-0.5 Z M 879.5,38.5 C 888.251,38.5321 896.584,40.3654 904.5,44C 906.019,45.3513 907.352,46.8513 908.5,48.5C 908,48.8333 907.5,49.1667 907,49.5C 890.141,48.3502 873.308,46.8502 856.5,45C 855.655,43.4419 856.321,42.4419 858.5,42C 865.546,40.2524 872.546,39.0858 879.5,38.5 Z M 892.5,90.5 C 890.507,88.8368 888.174,87.6701 885.5,87C 875.515,85.635 865.515,84.4683 855.5,83.5C 852.999,81.9627 853.499,81.2961 857,81.5C 872.504,82.6113 888.004,83.778 903.5,85C 904.5,85.3333 905.5,85.6667 906.5,86C 902.246,88.6875 897.579,90.1875 892.5,90.5 Z"/></g>
<g><path style="opacity:0.979" fill="#fefefe" d="M 376.5,77.5 C 373.527,81.1396 370.194,84.4729 366.5,87.5C 361.821,87.6658 357.155,87.4992 352.5,87C 338.916,84.0202 325.249,81.5202 311.5,79.5C 301.348,80.4971 291.348,82.3305 281.5,85C 270.468,85.7487 259.468,85.4153 248.5,84C 238.823,82.4981 229.156,80.9981 219.5,79.5C 219.5,77.5 219.5,75.5 219.5,73.5C 219.333,50.4976 219.5,27.4976 220,4.5C 220.5,4 221,3.5 221.5,3C 260.833,2.33333 300.167,2.33333 339.5,3C 371.369,9.552 385.535,29.052 382,61.5C 380.656,67.0326 378.823,72.366 376.5,77.5 Z M 272.5,46.5 C 290.17,46.3334 307.836,46.5001 325.5,47C 329.5,50 329.5,53 325.5,56C 307.836,56.4999 290.17,56.6666 272.5,56.5C 272.5,53.1667 272.5,49.8333 272.5,46.5 Z"/></g>
<g><path style="opacity:0.974" fill="#fefefe" d="M 538.5,73.5 C 538.857,77.664 537.19,80.8307 533.5,83C 517.837,83.4999 502.17,83.6666 486.5,83.5C 479.285,82.8505 471.951,82.0171 464.5,81C 458.5,80.3333 452.5,80.3333 446.5,81C 439.318,84.5108 431.818,87.0108 424,88.5C 418.793,87.5737 413.627,86.407 408.5,85C 403.511,84.5007 398.511,84.3341 393.5,84.5C 393.795,82.2646 393.461,80.2646 392.5,78.5C 392.5,77.5 392.5,76.5 392.5,75.5C 392.333,52.4976 392.5,29.4976 393,6.5C 394.167,5.33333 395.333,4.16667 396.5,3C 442.5,2.33333 488.5,2.33333 534.5,3C 535.667,4.16667 536.833,5.33333 538,6.5C 538.667,16.8333 538.667,27.1667 538,37.5C 536.833,38.6667 535.667,39.8333 534.5,41C 505.502,41.5 476.502,41.6666 447.5,41.5C 447.5,43.1667 447.5,44.8333 447.5,46.5C 476.502,46.3334 505.502,46.5 534.5,47C 535.667,48.1667 536.833,49.3333 538,50.5C 538.5,58.1594 538.666,65.8261 538.5,73.5 Z"/></g>
<g><path style="opacity:0.976" fill="#fefefe" d="M 716.5,78.5 C 713.527,82.1396 710.194,85.4729 706.5,88.5C 693.743,82.4497 680.41,80.9497 666.5,84C 656.428,86.9135 646.261,89.4135 636,91.5C 628.406,90.0803 620.906,88.2469 613.5,86C 607.167,85.3333 600.833,85.3333 594.5,86C 585.463,88.0692 576.463,90.2358 567.5,92.5C 564.111,92.4815 561.111,91.4815 558.5,89.5C 558.5,84.8333 558.5,80.1667 558.5,75.5C 558.333,52.4976 558.5,29.4976 559,6.5C 560.167,5.33333 561.333,4.16667 562.5,3C 601.833,2.33333 641.167,2.33333 680.5,3C 712.369,9.552 726.535,29.052 723,61.5C 721.703,67.5649 719.537,73.2316 716.5,78.5 Z M 613.5,46.5 C 631.17,46.3334 648.836,46.5001 666.5,47C 670.5,50 670.5,53 666.5,56C 648.836,56.4999 631.17,56.6666 613.5,56.5C 613.5,53.1667 613.5,49.8333 613.5,46.5 Z"/></g>
<g><path style="opacity:0.969" fill="#fefefe" d="M 789.5,75.5 C 789.5,77.5 789.5,79.5 789.5,81.5C 788.844,82.2778 788.011,82.9444 787,83.5C 770.106,78.2129 753.273,78.5462 736.5,84.5C 735.824,83.3984 735.158,82.3984 734.5,81.5C 734.5,80.1667 734.5,78.8333 734.5,77.5C 734.333,53.831 734.5,30.1643 735,6.5C 736.167,5.33333 737.333,4.16667 738.5,3C 754.167,2.33333 769.833,2.33333 785.5,3C 786.667,4.16667 787.833,5.33333 789,6.5C 789.5,29.4976 789.667,52.4976 789.5,75.5 Z"/></g>
<g><path style="opacity:0.936" fill="#fcfcfc" d="M 1256.5,17.5 C 1257.37,20.1123 1258.04,22.779 1258.5,25.5C 1258.63,26.3764 1258.3,27.0431 1257.5,27.5C 1250.32,23.6308 1242.66,21.4641 1234.5,21C 1222.15,20.3511 1209.82,20.5178 1197.5,21.5C 1196.69,19.7392 1195.69,18.0725 1194.5,16.5C 1192.3,7.46897 1191.3,7.46897 1191.5,16.5C 1191.5,18.5 1191.5,20.5 1191.5,22.5C 1190.55,23.9187 1190.22,25.5853 1190.5,27.5C 1186.12,27.4225 1181.79,26.9225 1177.5,26C 1169.43,22.4655 1161.1,19.7989 1152.5,18C 1147.74,17.5153 1143.07,18.0153 1138.5,19.5C 1137.83,18.0508 1137.16,16.7175 1136.5,15.5C 1136.5,12.5 1136.5,9.5 1136.5,6.5C 1137.96,5.54227 1139.29,4.37561 1140.5,3C 1156.17,2.33333 1171.83,2.33333 1187.5,3C 1189.38,4.5429 1190.88,6.37623 1192,8.5C 1193.29,6.7513 1194.46,4.91796 1195.5,3C 1213.83,2.33333 1232.17,2.33333 1250.5,3C 1252.41,7.96452 1254.41,12.7978 1256.5,17.5 Z M 1194.5,16.5 C 1193.5,16.5 1192.5,16.5 1191.5,16.5C 1191.3,7.46897 1192.3,7.46897 1194.5,16.5 Z"/></g>
<g><path style="opacity:0.978" fill="#fefefe" d="M 1435.5,70.5 C 1433.33,73.5154 1431.66,76.8487 1430.5,80.5C 1415.09,79.3029 1399.76,80.1362 1384.5,83C 1374.55,85.3915 1364.71,88.2248 1355,91.5C 1346.95,88.7199 1338.78,86.3865 1330.5,84.5C 1329.11,82.7274 1327.94,80.7274 1327,78.5C 1326.15,79.5707 1325.31,80.5707 1324.5,81.5C 1313.82,81.9179 1303.49,84.0846 1293.5,88C 1285.47,89.3559 1277.8,88.3559 1270.5,85C 1269.71,83.9148 1269.04,82.7481 1268.5,81.5C 1270.66,75.6488 1273,69.9822 1275.5,64.5C 1277.17,59.1551 1278.84,53.8217 1280.5,48.5C 1286.33,33.6767 1292,18.6767 1297.5,3.5C 1316.82,2.33363 1336.16,2.16696 1355.5,3C 1363.53,24.0729 1371.36,45.2395 1379,66.5C 1386.93,45.5387 1394.76,24.5387 1402.5,3.5C 1420.82,2.33366 1439.16,2.167 1457.5,3C 1460.19,5.31064 1461.36,8.14397 1461,11.5C 1451.93,30.9659 1443.43,50.6326 1435.5,70.5 Z"/></g>
<g><path style="opacity:0.977" fill="#fefefe" d="M 1597.5,85.5 C 1597.83,86.8333 1598.17,88.1667 1598.5,89.5C 1597.85,90.7251 1596.68,91.3917 1595,91.5C 1584.27,93.1773 1573.6,95.1773 1563,97.5C 1559.57,97.0676 1556.9,95.4009 1555,92.5C 1550.52,80.8511 1542.35,73.1844 1530.5,69.5C 1529.31,67.2487 1528.31,64.9154 1527.5,62.5C 1526.1,59.3661 1524.43,56.3661 1522.5,53.5C 1520.39,56.1566 1519.06,59.1566 1518.5,62.5C 1517.17,64.5 1515.83,66.5 1514.5,68.5C 1493.58,70.7072 1473.25,75.3738 1453.5,82.5C 1452.29,82.2528 1451.62,81.5862 1451.5,80.5C 1452.23,78.0462 1453.23,75.7128 1454.5,73.5C 1467.28,50.1067 1479.95,26.6067 1492.5,3C 1512.5,2.33333 1532.5,2.33333 1552.5,3C 1567.4,30.642 1582.4,58.142 1597.5,85.5 Z M 1527.5,62.5 C 1524.5,62.5 1521.5,62.5 1518.5,62.5C 1519.06,59.1566 1520.39,56.1566 1522.5,53.5C 1524.43,56.3661 1526.1,59.3661 1527.5,62.5 Z"/></g>
<g><path style="opacity:0.465" fill="#010000" d="M 1136.5,6.5 C 1136.5,9.5 1136.5,12.5 1136.5,15.5C 1136.5,19.5 1136.5,23.5 1136.5,27.5C 1136.5,28.8333 1136.5,30.1667 1136.5,31.5C 1136.5,38.8333 1136.5,46.1667 1136.5,53.5C 1135.74,54.2679 1134.74,54.7679 1133.5,55C 1122.19,56.3467 1110.86,56.6801 1099.5,56C 1095.48,51.5931 1091.31,51.4264 1087,55.5C 1084.09,62.5254 1086.26,67.3587 1093.5,70C 1103.82,71.4063 1114.16,71.9063 1124.5,71.5C 1115.71,84.7365 1108.21,98.7365 1102,113.5C 1093.79,113.854 1086.96,117.354 1081.5,124C 1080.55,124.483 1079.55,124.649 1078.5,124.5C 1078.34,122.473 1078.5,120.473 1079,118.5C 1084.16,116.057 1085.82,112.057 1084,106.5C 1080.92,101.884 1076.76,100.55 1071.5,102.5C 1071.5,84.5 1071.5,66.5 1071.5,48.5C 1073.17,48.5 1074.83,48.5 1076.5,48.5C 1091.5,48.6666 1106.5,48.4999 1121.5,48C 1122.67,46.8333 1123.83,45.6667 1125,44.5C 1125.5,37.1742 1125.67,29.8409 1125.5,22.5C 1125.5,17.8333 1125.5,13.1667 1125.5,8.5C 1129,7.08317 1132.66,6.4165 1136.5,6.5 Z"/></g>
<g><path style="opacity:0.233" fill="#010101" d="M 1191.5,16.5 C 1192.5,16.5 1193.5,16.5 1194.5,16.5C 1195.69,18.0725 1196.69,19.7392 1197.5,21.5C 1198.23,23.9538 1199.23,26.2872 1200.5,28.5C 1201.11,29.391 1201.44,30.391 1201.5,31.5C 1202.5,33.5 1203.5,35.5 1204.5,37.5C 1206.4,40.8271 1207.4,44.1605 1207.5,47.5C 1202.15,47.5688 1196.81,47.9022 1191.5,48.5C 1191.5,44.8333 1191.5,41.1667 1191.5,37.5C 1191.5,34.8333 1191.5,32.1667 1191.5,29.5C 1191.5,27.1667 1191.5,24.8333 1191.5,22.5C 1191.5,20.5 1191.5,18.5 1191.5,16.5 Z"/></g>
<g><path style="opacity:0.017" fill="#000000" d="M 1256.5,17.5 C 1272.75,21.418 1280.75,31.7513 1280.5,48.5C 1278.84,53.8217 1277.17,59.1551 1275.5,64.5C 1274.78,64.9175 1274.28,65.5842 1274,66.5C 1269.1,52.6177 1263.93,38.9511 1258.5,25.5C 1258.04,22.779 1257.37,20.1123 1256.5,17.5 Z"/></g>
<g><path style="opacity:1" fill="#dfdfdf" d="M 1136.5,15.5 C 1137.16,16.7175 1137.83,18.0508 1138.5,19.5C 1143.07,18.0153 1147.74,17.5153 1152.5,18C 1161.1,19.7989 1169.43,22.4655 1177.5,26C 1181.79,26.9225 1186.12,27.4225 1190.5,27.5C 1190.22,25.5853 1190.55,23.9187 1191.5,22.5C 1191.5,24.8333 1191.5,27.1667 1191.5,29.5C 1190.54,31.2646 1190.21,33.2646 1190.5,35.5C 1185.43,35.6601 1180.43,35.1601 1175.5,34C 1168.59,31.3805 1161.59,29.0471 1154.5,27C 1149.03,26.1488 1143.7,26.6488 1138.5,28.5C 1137.82,28.1373 1137.15,27.8039 1136.5,27.5C 1136.5,23.5 1136.5,19.5 1136.5,15.5 Z"/></g>
<g><path style="opacity:0.998" fill="#eeeeee" d="M 1258.5,25.5 C 1263.93,38.9511 1269.1,52.6177 1274,66.5C 1274.28,65.5842 1274.78,64.9175 1275.5,64.5C 1273,69.9822 1270.66,75.6488 1268.5,81.5C 1269.04,82.7481 1269.71,83.9148 1270.5,85C 1277.8,88.3559 1285.47,89.3559 1293.5,88C 1303.49,84.0846 1313.82,81.9179 1324.5,81.5C 1323.77,83.9538 1322.77,86.2872 1321.5,88.5C 1309.64,91.7867 1297.64,94.4534 1285.5,96.5C 1275.57,96.1851 1266.24,93.6851 1257.5,89C 1256.13,87.7581 1255.13,86.2581 1254.5,84.5C 1258.6,78.5482 1262.1,72.2149 1265,65.5C 1266.96,45.1097 1257.79,32.943 1237.5,29C 1225.19,27.1957 1212.86,27.029 1200.5,28.5C 1199.23,26.2872 1198.23,23.9538 1197.5,21.5C 1209.82,20.5178 1222.15,20.3511 1234.5,21C 1242.66,21.4641 1250.32,23.6308 1257.5,27.5C 1258.3,27.0431 1258.63,26.3764 1258.5,25.5 Z"/></g>
<g><path style="opacity:1" fill="#e4e4e4" d="M 1124.5,26.5 C 1124.5,28.5 1124.5,30.5 1124.5,32.5C 1120.47,35.1806 1116.14,37.3472 1111.5,39C 1102.56,40.2154 1093.56,40.882 1084.5,41C 1070.01,43.1552 1062.01,51.4886 1060.5,66C 1061.94,72.1104 1062.44,78.2771 1062,84.5C 1056.86,90.417 1050.36,92.5837 1042.5,91C 1034.63,86.9849 1026.29,85.1515 1017.5,85.5C 1017.77,83.901 1017.43,82.5676 1016.5,81.5C 1016.5,79.8333 1016.5,78.1667 1016.5,76.5C 1017.4,77.209 1017.74,78.209 1017.5,79.5C 1025.92,78.7728 1033.92,80.2728 1041.5,84C 1046.44,85.3694 1050.6,84.2027 1054,80.5C 1055.58,75.7489 1055.74,70.9156 1054.5,66C 1055.12,50.0803 1063.12,40.0803 1078.5,36C 1088.87,34.846 1099.2,34.1793 1109.5,34C 1114.81,32.0139 1119.81,29.5139 1124.5,26.5 Z"/></g>
<g><path style="opacity:1" fill="#dfdfdf" d="M 1321.5,88.5 C 1321.34,90.153 1320.67,91.4863 1319.5,92.5C 1308.18,95.8722 1296.68,98.5389 1285,100.5C 1272.27,98.9423 1260.1,95.4423 1248.5,90C 1246.2,88.7367 1245.37,86.9034 1246,84.5C 1249.8,79.9438 1253.8,75.6104 1258,71.5C 1265.48,51.6199 1258.98,38.7865 1238.5,33C 1226.22,31.6057 1213.89,31.1057 1201.5,31.5C 1201.44,30.391 1201.11,29.391 1200.5,28.5C 1212.86,27.029 1225.19,27.1957 1237.5,29C 1257.79,32.943 1266.96,45.1097 1265,65.5C 1262.1,72.2149 1258.6,78.5482 1254.5,84.5C 1255.13,86.2581 1256.13,87.7581 1257.5,89C 1266.24,93.6851 1275.57,96.1851 1285.5,96.5C 1297.64,94.4534 1309.64,91.7867 1321.5,88.5 Z"/></g>
<g><path style="opacity:1" fill="#cecece" d="M 1124.5,32.5 C 1124.5,34.5 1124.5,36.5 1124.5,38.5C 1119.29,40.598 1113.96,42.4313 1108.5,44C 1101.5,44.3333 1094.5,44.6667 1087.5,45C 1083.39,45.115 1079.72,46.2817 1076.5,48.5C 1074.83,48.5 1073.17,48.5 1071.5,48.5C 1070.5,62.9905 1070.17,77.6572 1070.5,92.5C 1063.48,96.1314 1055.98,98.1314 1048,98.5C 1037.49,95.489 1026.99,92.8224 1016.5,90.5C 1016.5,87.5 1016.5,84.5 1016.5,81.5C 1017.43,82.5676 1017.77,83.901 1017.5,85.5C 1026.29,85.1515 1034.63,86.9849 1042.5,91C 1050.36,92.5837 1056.86,90.417 1062,84.5C 1062.44,78.2771 1061.94,72.1104 1060.5,66C 1062.01,51.4886 1070.01,43.1552 1084.5,41C 1093.56,40.882 1102.56,40.2154 1111.5,39C 1116.14,37.3472 1120.47,35.1806 1124.5,32.5 Z"/></g>
<g><path style="opacity:1" fill="#c9c9c9" d="M 1201.5,31.5 C 1213.89,31.1057 1226.22,31.6057 1238.5,33C 1258.98,38.7865 1265.48,51.6199 1258,71.5C 1253.8,75.6104 1249.8,79.9438 1246,84.5C 1245.37,86.9034 1246.2,88.7367 1248.5,90C 1260.1,95.4423 1272.27,98.9423 1285,100.5C 1296.68,98.5389 1308.18,95.8722 1319.5,92.5C 1319.11,94.2838 1318.44,95.9505 1317.5,97.5C 1306.94,100.799 1296.1,103.132 1285,104.5C 1276.02,103.381 1267.19,101.548 1258.5,99C 1249.13,98.4951 1239.8,97.6617 1230.5,96.5C 1227.56,90.2863 1224.89,83.9529 1222.5,77.5C 1229.91,77.0881 1237.25,75.5881 1244.5,73C 1250.51,70.1 1253.18,65.6 1252.5,59.5C 1256.81,54.3925 1256.14,50.0592 1250.5,46.5C 1250.94,46.5654 1251.27,46.3988 1251.5,46C 1245.56,41.7908 1238.89,39.1241 1231.5,38C 1222.51,37.5002 1213.51,37.3336 1204.5,37.5C 1203.5,35.5 1202.5,33.5 1201.5,31.5 Z"/></g>
<g><path style="opacity:1" fill="#bababa" d="M 1191.5,29.5 C 1191.5,32.1667 1191.5,34.8333 1191.5,37.5C 1190.54,39.2646 1190.21,41.2646 1190.5,43.5C 1183.14,43.5817 1175.81,43.2484 1168.5,42.5C 1166,37.6735 1162,35.3402 1156.5,35.5C 1150.23,34.212 1143.9,34.5453 1137.5,36.5C 1137.78,34.5853 1137.45,32.9187 1136.5,31.5C 1136.5,30.1667 1136.5,28.8333 1136.5,27.5C 1137.15,27.8039 1137.82,28.1373 1138.5,28.5C 1143.7,26.6488 1149.03,26.1488 1154.5,27C 1161.59,29.0471 1168.59,31.3805 1175.5,34C 1180.43,35.1601 1185.43,35.6601 1190.5,35.5C 1190.21,33.2646 1190.54,31.2646 1191.5,29.5 Z"/></g>
<g><path style="opacity:1" fill="#f9d302" d="M 1156.5,35.5 C 1162,35.3402 1166,37.6735 1168.5,42.5C 1168.85,45.6021 1168.18,48.4355 1166.5,51C 1174.9,50.8539 1183.23,50.0206 1191.5,48.5C 1196.81,47.9022 1202.15,47.5688 1207.5,47.5C 1221.8,46.5692 1236.14,46.2358 1250.5,46.5C 1256.14,50.0592 1256.81,54.3925 1252.5,59.5C 1248.75,60.6515 1245.08,60.3182 1241.5,58.5C 1232.48,58.3584 1223.48,58.6917 1214.5,59.5C 1206.83,60.5666 1199.16,61.5666 1191.5,62.5C 1176.64,63.8789 1161.8,65.5456 1147,67.5C 1142.83,71.4999 1139.66,76.1665 1137.5,81.5C 1136.5,81.8333 1135.83,82.5 1135.5,83.5C 1123.43,101.653 1114.59,121.319 1109,142.5C 1108.18,145.882 1108.34,149.216 1109.5,152.5C 1125.94,147.618 1140.6,139.618 1153.5,128.5C 1158.93,124.578 1163.93,120.078 1168.5,115C 1174.12,112.763 1179.79,112.43 1185.5,114C 1189.46,118.499 1189.46,122.999 1185.5,127.5C 1184.69,128.997 1184.03,130.664 1183.5,132.5C 1183.83,132.833 1184.17,133.167 1184.5,133.5C 1194.18,128.663 1203.18,122.83 1211.5,116C 1214.57,114.154 1217.9,113.154 1221.5,113C 1222.75,108.917 1225.41,106.417 1229.5,105.5C 1231.53,105.338 1233.53,105.505 1235.5,106C 1236.69,107.353 1238.02,108.52 1239.5,109.5C 1252.38,100.857 1259.54,104.19 1261,119.5C 1266.04,114.056 1272.21,111.556 1279.5,112C 1281.32,112.997 1282.99,114.164 1284.5,115.5C 1285.83,118.48 1287.16,121.48 1288.5,124.5C 1294.96,121.201 1301.29,117.701 1307.5,114C 1309.13,113.506 1310.8,113.34 1312.5,113.5C 1313.58,113.539 1314.58,113.873 1315.5,114.5C 1321.89,108.138 1329.55,104.805 1338.5,104.5C 1342.17,106.167 1344.83,108.833 1346.5,112.5C 1346.5,114.5 1346.5,116.5 1346.5,118.5C 1346.17,119.167 1345.83,119.833 1345.5,120.5C 1339.11,129.859 1330.11,134.192 1318.5,133.5C 1317.25,135.323 1316.59,137.323 1316.5,139.5C 1330.56,138.7 1343.56,134.7 1355.5,127.5C 1364.86,123.119 1374.19,118.785 1383.5,114.5C 1383.52,112.435 1383.85,110.435 1384.5,108.5C 1389.6,103.694 1394.93,103.361 1400.5,107.5C 1404.42,103.607 1408.42,103.607 1412.5,107.5C 1413.87,109.764 1414.87,112.097 1415.5,114.5C 1415.34,116.199 1415.51,117.866 1416,119.5C 1419.09,114.91 1421.42,109.91 1423,104.5C 1425.07,99.8567 1428.57,98.3567 1433.5,100C 1435.44,101.382 1436.78,103.215 1437.5,105.5C 1437.8,108.579 1438.8,111.413 1440.5,114C 1448.7,114.211 1456.87,114.711 1465,115.5C 1471.66,109.177 1479.16,104.011 1487.5,100C 1489.58,99.1313 1491.75,98.6313 1494,98.5C 1497.79,99.6582 1501.62,100.158 1505.5,100C 1509.93,97.7874 1514.26,95.6207 1518.5,93.5C 1520.81,93.0074 1523.14,92.6741 1525.5,92.5C 1535.67,92.6721 1539.33,97.6721 1536.5,107.5C 1533.93,115.696 1531.27,123.862 1528.5,132C 1538.28,130.974 1547.95,129.141 1557.5,126.5C 1575.88,122.425 1594.21,118.758 1612.5,115.5C 1668.97,108.12 1725.64,105.954 1782.5,109C 1788.51,110.672 1790.67,114.505 1789,120.5C 1786.49,124.212 1782.99,125.378 1778.5,124C 1777.83,123.333 1777.17,122.667 1776.5,122C 1716.14,118.452 1656.14,121.786 1596.5,132C 1573.67,136.917 1550.84,141.75 1528,146.5C 1516.88,145.638 1512.55,139.638 1515,128.5C 1516.63,122.606 1518.46,116.772 1520.5,111C 1520.17,110.5 1519.83,110 1519.5,109.5C 1503.8,118.015 1488.13,126.515 1472.5,135C 1467.22,135.691 1463.22,133.691 1460.5,129C 1457.99,127.748 1455.32,127.248 1452.5,127.5C 1448.35,126.675 1444.02,126.175 1439.5,126C 1436.38,125.274 1433.71,123.774 1431.5,121.5C 1430.48,121.855 1429.81,122.522 1429.5,123.5C 1423.14,135.402 1414.81,137.069 1404.5,128.5C 1397.44,138.451 1390.1,138.785 1382.5,129.5C 1366.41,138.043 1349.75,145.21 1332.5,151C 1323.95,154.517 1315.62,154.184 1307.5,150C 1302.25,144.345 1301.25,138.011 1304.5,131C 1299.71,132.385 1295.05,134.385 1290.5,137C 1281.49,138.505 1276.15,134.671 1274.5,125.5C 1270.65,129.186 1266.65,132.686 1262.5,136C 1250.99,141.307 1245.49,137.473 1246,124.5C 1240.87,128.633 1236.03,133.133 1231.5,138C 1222.1,142.043 1217.27,138.876 1217,128.5C 1209.17,133.667 1201.33,138.833 1193.5,144C 1180.12,151.674 1171.95,148.174 1169,133.5C 1154.75,146.048 1138.91,156.215 1121.5,164C 1099.05,170.227 1089.89,161.727 1094,138.5C 1094.68,135.45 1095.51,132.45 1096.5,129.5C 1096.17,129.167 1095.83,128.833 1095.5,128.5C 1091.89,130.603 1088.73,133.269 1086,136.5C 1087.33,143.495 1086.33,150.161 1083,156.5C 1076.73,164.316 1070.73,164.316 1065,156.5C 1063.44,149.68 1064.94,143.68 1069.5,138.5C 1067.63,134.742 1065.3,131.408 1062.5,128.5C 1052.54,133.815 1042.87,139.648 1033.5,146C 1020.55,150.196 1013.88,145.529 1013.5,132C 1013.63,126.649 1014.63,121.483 1016.5,116.5C 1021.67,111.221 1026.84,111.221 1032,116.5C 1033.19,120.741 1032.35,124.408 1029.5,127.5C 1028.69,128.997 1028.03,130.664 1027.5,132.5C 1027.83,132.833 1028.17,133.167 1028.5,133.5C 1032.23,131.977 1035.56,129.977 1038.5,127.5C 1045.12,123.851 1051.45,119.685 1057.5,115C 1059.35,113.872 1061.35,113.372 1063.5,113.5C 1063.43,112.041 1063.77,110.708 1064.5,109.5C 1066.5,106.833 1068.83,104.5 1071.5,102.5C 1076.76,100.55 1080.92,101.884 1084,106.5C 1085.82,112.057 1084.16,116.057 1079,118.5C 1078.5,120.473 1078.34,122.473 1078.5,124.5C 1079.55,124.649 1080.55,124.483 1081.5,124C 1086.96,117.354 1093.79,113.854 1102,113.5C 1108.21,98.7365 1115.71,84.7365 1124.5,71.5C 1114.16,71.9063 1103.82,71.4063 1093.5,70C 1086.26,67.3587 1084.09,62.5254 1087,55.5C 1091.31,51.4264 1095.48,51.5931 1099.5,56C 1110.86,56.6801 1122.19,56.3467 1133.5,55C 1134.74,54.7679 1135.74,54.2679 1136.5,53.5C 1140.46,48.4566 1144.8,43.6233 1149.5,39C 1151.58,37.295 1153.91,36.1283 1156.5,35.5 Z"/></g>
<g><path style="opacity:1" fill="#b8b8b8" d="M 1125.5,22.5 C 1125.67,29.8409 1125.5,37.1742 1125,44.5C 1123.83,45.6667 1122.67,46.8333 1121.5,48C 1106.5,48.4999 1091.5,48.6666 1076.5,48.5C 1079.72,46.2817 1083.39,45.115 1087.5,45C 1094.5,44.6667 1101.5,44.3333 1108.5,44C 1113.96,42.4313 1119.29,40.598 1124.5,38.5C 1124.5,36.5 1124.5,34.5 1124.5,32.5C 1124.5,30.5 1124.5,28.5 1124.5,26.5C 1124.23,24.901 1124.57,23.5676 1125.5,22.5 Z"/></g>
<g><path style="opacity:1" fill="#848381" d="M 1136.5,31.5 C 1137.45,32.9187 1137.78,34.5853 1137.5,36.5C 1143.9,34.5453 1150.23,34.212 1156.5,35.5C 1153.91,36.1283 1151.58,37.295 1149.5,39C 1144.8,43.6233 1140.46,48.4566 1136.5,53.5C 1136.5,46.1667 1136.5,38.8333 1136.5,31.5 Z"/></g>
<g><path style="opacity:1" fill="#aba9a3" d="M 1204.5,37.5 C 1213.51,37.3336 1222.51,37.5002 1231.5,38C 1238.89,39.1241 1245.56,41.7908 1251.5,46C 1251.27,46.3988 1250.94,46.5654 1250.5,46.5C 1236.14,46.2358 1221.8,46.5692 1207.5,47.5C 1207.4,44.1605 1206.4,40.8271 1204.5,37.5 Z"/></g>
<g><path style="opacity:1" fill="#84837f" d="M 1191.5,37.5 C 1191.5,41.1667 1191.5,44.8333 1191.5,48.5C 1183.23,50.0206 1174.9,50.8539 1166.5,51C 1168.18,48.4355 1168.85,45.6021 1168.5,42.5C 1175.81,43.2484 1183.14,43.5817 1190.5,43.5C 1190.21,41.2646 1190.54,39.2646 1191.5,37.5 Z"/></g>
<g><path style="opacity:0.245" fill="#000000" d="M 219.5,73.5 C 219.5,75.5 219.5,77.5 219.5,79.5C 219.5,81.8333 219.5,84.1667 219.5,86.5C 219.5,87.8333 219.5,89.1667 219.5,90.5C 219.5,92.8333 219.5,95.1667 219.5,97.5C 219.5,99.5 219.5,101.5 219.5,103.5C 176.481,94.3519 132.981,89.3519 89,88.5C 76.4255,88.3625 63.9255,89.1958 51.5,91C 44.4125,92.4198 41.9125,96.5865 44,103.5C 48.0949,108.464 52.2616,108.631 56.5,104C 59.1013,103.08 61.7679,102.413 64.5,102C 97.0196,100.936 129.353,102.936 161.5,108C 180.905,111.181 200.238,114.681 219.5,118.5C 219.02,121.685 219.686,124.519 221.5,127C 237.339,127.828 253.005,127.661 268.5,126.5C 279.121,127.288 289.788,127.788 300.5,128C 292.317,146.537 284.817,165.37 278,184.5C 276.689,190.879 279.189,194.879 285.5,196.5C 288.655,195.85 291.155,194.183 293,191.5C 299.002,176.693 306.835,163.027 316.5,150.5C 319.001,153.751 322.334,155.417 326.5,155.5C 335.173,154.163 342.84,150.663 349.5,145C 353.519,140.584 357.519,136.25 361.5,132C 366.703,131.352 371.87,130.519 377,129.5C 377.5,129.833 378,130.167 378.5,130.5C 375.212,137.707 376.212,144.207 381.5,150C 389.618,154.184 397.951,154.517 406.5,151C 411.5,149.333 416.5,147.667 421.5,146C 434.955,139.271 448.622,133.104 462.5,127.5C 465.167,127.5 467.833,127.5 470.5,127.5C 468.516,136.103 466.849,144.77 465.5,153.5C 465.679,163.756 470.346,166.589 479.5,162C 486.925,155.577 493.259,148.244 498.5,140C 500.452,141.492 502.785,142.826 505.5,144C 510.181,144.665 514.514,143.665 518.5,141C 524.755,136.622 530.922,132.122 537,127.5C 536.745,145.273 544.912,151.439 561.5,146C 570.995,141.422 579.995,136.089 588.5,130C 592.059,130.672 595.725,131.505 599.5,132.5C 603.345,132.052 606.845,130.719 610,128.5C 610.944,131.347 610.444,133.847 608.5,136C 586.492,147.25 567.658,162.417 552,181.5C 547.44,187.84 545.773,194.84 547,202.5C 550.326,209.669 555.992,213.336 564,213.5C 577.394,211.304 588.394,204.97 597,194.5C 609.398,178.872 618.231,161.372 623.5,142C 631.846,137.324 640.513,133.491 649.5,130.5C 650.508,144.175 657.175,147.675 669.5,141C 675.755,136.622 681.922,132.122 688,127.5C 687.745,145.273 695.912,151.439 712.5,146C 719.155,143.007 725.488,139.507 731.5,135.5C 736.272,145.194 743.272,147.027 752.5,141C 758.755,136.622 764.922,132.122 771,127.5C 770.745,145.273 778.912,151.439 795.5,146C 802.821,142.675 809.821,138.841 816.5,134.5C 818.361,135.528 819.695,137.028 820.5,139C 824.167,141 827.833,141 831.5,139C 834.312,137.023 836.978,134.856 839.5,132.5C 841.043,135.086 842.709,137.586 844.5,140C 847.702,141.483 851.036,141.817 854.5,141C 860.541,137.652 866.208,133.818 871.5,129.5C 875.5,129.5 879.5,129.5 883.5,129.5C 886.833,129.5 890.167,129.5 893.5,129.5C 897.5,129.5 901.5,129.5 905.5,129.5C 905.658,138.935 903.825,147.935 900,156.5C 897.131,159.704 893.965,162.537 890.5,165C 884.236,168.27 878.236,171.936 872.5,176C 861.55,179.953 850.216,181.786 838.5,181.5C 831.825,180.998 825.158,180.831 818.5,181C 810.507,182.997 802.507,184.997 794.5,187C 788.5,187.5 782.5,188 776.5,188.5C 763.378,187.742 750.378,186.075 737.5,183.5C 722.864,185.427 708.197,187.094 693.5,188.5C 682.015,188.099 670.682,186.599 659.5,184C 653.96,183.236 648.46,183.403 643,184.5C 637.118,196.595 630.452,208.261 623,219.5C 610.027,237.353 592.861,248.353 571.5,252.5C 560.5,252.5 549.5,252.5 538.5,252.5C 521.696,251.173 510.529,242.506 505,226.5C 503.484,215.417 502.15,204.417 501,193.5C 496.132,197.517 490.632,200.351 484.5,202C 473.539,203.486 462.539,203.819 451.5,203C 440.217,203.028 431.551,198.361 425.5,189C 424.234,188.691 423.067,188.191 422,187.5C 409.824,191.311 397.324,193.311 384.5,193.5C 374.476,192.748 364.476,191.748 354.5,190.5C 346.794,191.677 339.127,193.177 331.5,195C 329.671,195.273 328.171,196.107 327,197.5C 322.397,205.707 318.063,214.041 314,222.5C 307.63,230.768 299.13,234.934 288.5,235C 277.798,235.776 267.131,235.443 256.5,234C 247.255,231.756 240.755,226.256 237,217.5C 233.857,201.209 233.691,184.876 236.5,168.5C 236.291,167.006 235.624,165.839 234.5,165C 196.007,157.301 157.341,150.635 118.5,145C 106.189,143.835 93.8559,143.002 81.5,142.5C 72.377,142.691 63.377,143.858 54.5,146C 43.4606,146.819 32.4606,146.486 21.5,145C 11.8435,142.677 5.34354,136.843 2,127.5C 1.16171,122.357 0.328373,117.357 -0.5,112.5C -0.5,107.167 -0.5,101.833 -0.5,96.5C -0.479722,85.9513 3.18694,76.7846 10.5,69C 19.4024,63.6886 29.069,60.6886 39.5,60C 100.204,55.5646 160.204,60.0646 219.5,73.5 Z"/></g>
<g><path style="opacity:1" fill="#757575" d="M 1241.5,58.5 C 1241.07,61.1955 1239.73,63.3621 1237.5,65C 1231.38,67.2651 1225.38,69.0985 1219.5,70.5C 1217.59,67.0166 1215.93,63.35 1214.5,59.5C 1223.48,58.6917 1232.48,58.3584 1241.5,58.5 Z"/></g>
<g><path style="opacity:0.374" fill="#010000" d="M 1214.5,59.5 C 1215.93,63.35 1217.59,67.0166 1219.5,70.5C 1220.26,73.0177 1221.26,75.351 1222.5,77.5C 1224.89,83.9529 1227.56,90.2863 1230.5,96.5C 1231.17,97.8333 1231.83,99.1667 1232.5,100.5C 1232.54,101.583 1232.87,102.583 1233.5,103.5C 1232.05,104.172 1230.72,104.839 1229.5,105.5C 1225.41,106.417 1222.75,108.917 1221.5,113C 1217.9,113.154 1214.57,114.154 1211.5,116C 1203.18,122.83 1194.18,128.663 1184.5,133.5C 1184.17,133.167 1183.83,132.833 1183.5,132.5C 1184.03,130.664 1184.69,128.997 1185.5,127.5C 1187.72,126.797 1189.55,125.464 1191,123.5C 1191.5,119.179 1191.67,114.846 1191.5,110.5C 1195.5,106.167 1195.5,101.833 1191.5,97.5C 1191.5,85.8333 1191.5,74.1667 1191.5,62.5C 1199.16,61.5666 1206.83,60.5666 1214.5,59.5 Z"/></g>
<g><path style="opacity:0.015" fill="#000000" d="M 1518.5,62.5 C 1521.5,62.5 1524.5,62.5 1527.5,62.5C 1528.31,64.9154 1529.31,67.2487 1530.5,69.5C 1528.02,70.1641 1525.36,70.4975 1522.5,70.5C 1519.41,70.4783 1516.74,69.8117 1514.5,68.5C 1515.83,66.5 1517.17,64.5 1518.5,62.5 Z"/></g>
<g><path style="opacity:0.236" fill="#000000" d="M 1016.5,66.5 C 1016.5,69.8333 1016.5,73.1667 1016.5,76.5C 1016.5,78.1667 1016.5,79.8333 1016.5,81.5C 1016.5,84.5 1016.5,87.5 1016.5,90.5C 1016.5,93.1667 1016.5,95.8333 1016.5,98.5C 1016.5,104.5 1016.5,110.5 1016.5,116.5C 1014.63,121.483 1013.63,126.649 1013.5,132C 1013.88,145.529 1020.55,150.196 1033.5,146C 1042.87,139.648 1052.54,133.815 1062.5,128.5C 1065.3,131.408 1067.63,134.742 1069.5,138.5C 1064.94,143.68 1063.44,149.68 1065,156.5C 1070.73,164.316 1076.73,164.316 1083,156.5C 1086.33,150.161 1087.33,143.495 1086,136.5C 1088.73,133.269 1091.89,130.603 1095.5,128.5C 1095.83,128.833 1096.17,129.167 1096.5,129.5C 1095.51,132.45 1094.68,135.45 1094,138.5C 1089.89,161.727 1099.05,170.227 1121.5,164C 1138.91,156.215 1154.75,146.048 1169,133.5C 1171.95,148.174 1180.12,151.674 1193.5,144C 1201.33,138.833 1209.17,133.667 1217,128.5C 1217.27,138.876 1222.1,142.043 1231.5,138C 1236.03,133.133 1240.87,128.633 1246,124.5C 1245.49,137.473 1250.99,141.307 1262.5,136C 1266.65,132.686 1270.65,129.186 1274.5,125.5C 1276.15,134.671 1281.49,138.505 1290.5,137C 1295.05,134.385 1299.71,132.385 1304.5,131C 1301.25,138.011 1302.25,144.345 1307.5,150C 1315.62,154.184 1323.95,154.517 1332.5,151C 1349.75,145.21 1366.41,138.043 1382.5,129.5C 1390.1,138.785 1397.44,138.451 1404.5,128.5C 1414.81,137.069 1423.14,135.402 1429.5,123.5C 1431.12,123.787 1432.12,124.787 1432.5,126.5C 1439.13,127.497 1445.8,127.83 1452.5,127.5C 1455.32,127.248 1457.99,127.748 1460.5,129C 1463.22,133.691 1467.22,135.691 1472.5,135C 1488.13,126.515 1503.8,118.015 1519.5,109.5C 1519.83,110 1520.17,110.5 1520.5,111C 1518.46,116.772 1516.63,122.606 1515,128.5C 1512.55,139.638 1516.88,145.638 1528,146.5C 1550.84,141.75 1573.67,136.917 1596.5,132C 1656.14,121.786 1716.14,118.452 1776.5,122C 1777.17,122.667 1777.83,123.333 1778.5,124C 1782.99,125.378 1786.49,124.212 1789,120.5C 1790.67,114.505 1788.51,110.672 1782.5,109C 1725.64,105.954 1668.97,108.12 1612.5,115.5C 1611.74,113.632 1610.74,111.965 1609.5,110.5C 1609.01,108.181 1608.01,106.181 1606.5,104.5C 1606.34,102.847 1605.67,101.514 1604.5,100.5C 1604.67,99.5084 1604.34,98.8417 1603.5,98.5C 1602.08,95.331 1600.42,92.331 1598.5,89.5C 1598.17,88.1667 1597.83,86.8333 1597.5,85.5C 1658.58,77.1638 1719.91,74.9972 1781.5,79C 1806.08,81.4155 1817.42,94.9155 1815.5,119.5C 1815.5,121.167 1815.5,122.833 1815.5,124.5C 1814.76,130.701 1813.93,137.034 1813,143.5C 1810.1,155.213 1802.6,161.713 1790.5,163C 1784.67,163.56 1778.84,164.06 1773,164.5C 1721.02,159.339 1669.19,160.839 1617.5,169C 1591.6,173.225 1565.93,178.558 1540.5,185C 1525.11,187.209 1509.77,186.876 1494.5,184C 1488.36,181.764 1482.69,178.764 1477.5,175C 1462.05,175.141 1446.72,173.975 1431.5,171.5C 1412.88,173.885 1394.22,175.718 1375.5,177C 1346.32,192.264 1315.65,196.597 1283.5,190C 1276.73,187.555 1270.73,183.889 1265.5,179C 1248.16,178.489 1230.82,178.823 1213.5,180C 1206.43,181.801 1199.43,183.801 1192.5,186C 1182.53,187.046 1172.53,187.713 1162.5,188C 1154.53,191.984 1146.53,195.984 1138.5,200C 1122.29,205.653 1105.62,207.653 1088.5,206C 1073.61,203.159 1058.61,201.159 1043.5,200C 1040.01,199.058 1036.67,197.725 1033.5,196C 1030.8,192.962 1027.8,190.295 1024.5,188C 1011.87,188.355 999.535,186.688 987.5,183C 978.088,177.568 972.588,169.401 971,158.5C 966.386,130.351 970.719,103.684 984,78.5C 988.367,72.5661 994.2,69.0661 1001.5,68C 1006.48,67.2522 1011.48,66.7522 1016.5,66.5 Z"/></g>
<g><path style="opacity:1" fill="#6d6d6b" d="M 1191.5,62.5 C 1191.5,74.1667 1191.5,85.8333 1191.5,97.5C 1191.17,97.5 1190.83,97.5 1190.5,97.5C 1190.5,89.8333 1190.5,82.1667 1190.5,74.5C 1190.5,72.5 1190.5,70.5 1190.5,68.5C 1178.49,70.1924 1166.49,72.0257 1154.5,74C 1148.31,75.4464 1142.65,77.9464 1137.5,81.5C 1139.66,76.1665 1142.83,71.4999 1147,67.5C 1161.8,65.5456 1176.64,63.8789 1191.5,62.5 Z"/></g>
<g><path style="opacity:0.148" fill="#020201" d="M 1435.5,70.5 C 1441.76,71.9814 1448.09,72.9814 1454.5,73.5C 1453.23,75.7128 1452.23,78.0462 1451.5,80.5C 1448.74,83.678 1446.74,87.3447 1445.5,91.5C 1444.33,92.5137 1443.66,93.847 1443.5,95.5C 1442.33,96.5137 1441.66,97.847 1441.5,99.5C 1439.99,101.181 1438.99,103.181 1438.5,105.5C 1438.17,105.5 1437.83,105.5 1437.5,105.5C 1436.78,103.215 1435.44,101.382 1433.5,100C 1428.57,98.3567 1425.07,99.8567 1423,104.5C 1421.42,109.91 1419.09,114.91 1416,119.5C 1415.51,117.866 1415.34,116.199 1415.5,114.5C 1417.22,109.394 1419.22,104.394 1421.5,99.5C 1422.17,98.1667 1422.83,96.8333 1423.5,95.5C 1424.17,94.1667 1424.83,92.8333 1425.5,91.5C 1426.17,89.5 1426.83,87.5 1427.5,85.5C 1428.74,84.0351 1429.74,82.3684 1430.5,80.5C 1431.66,76.8487 1433.33,73.5154 1435.5,70.5 Z"/></g>
<g><path style="opacity:0.991" fill="#efefef" d="M 1514.5,68.5 C 1516.74,69.8117 1519.41,70.4783 1522.5,70.5C 1525.36,70.4975 1528.02,70.1641 1530.5,69.5C 1542.35,73.1844 1550.52,80.8511 1555,92.5C 1556.9,95.4009 1559.57,97.0676 1563,97.5C 1573.6,95.1773 1584.27,93.1773 1595,91.5C 1596.68,91.3917 1597.85,90.7251 1598.5,89.5C 1600.42,92.331 1602.08,95.331 1603.5,98.5C 1591.35,101.197 1579.01,103.697 1566.5,106C 1558.5,108.19 1552,106.023 1547,99.5C 1540.64,85.6477 1529.8,78.3143 1514.5,77.5C 1493.46,79.9403 1473.13,85.107 1453.5,93C 1452.17,93.1667 1450.83,93.3333 1449.5,93.5C 1447.67,93.4146 1446.33,92.7479 1445.5,91.5C 1446.74,87.3447 1448.74,83.678 1451.5,80.5C 1451.62,81.5862 1452.29,82.2528 1453.5,82.5C 1473.25,75.3738 1493.58,70.7072 1514.5,68.5 Z"/></g>
<g><path style="opacity:0.15" fill="#010000" d="M 538.5,73.5 C 545.218,73.698 551.885,74.3647 558.5,75.5C 558.5,80.1667 558.5,84.8333 558.5,89.5C 558.5,92.5 558.5,95.5 558.5,98.5C 558.5,100.5 558.5,102.5 558.5,104.5C 558.5,107.167 558.5,109.833 558.5,112.5C 556.302,120.656 558.969,125.989 566.5,128.5C 561.846,131.325 556.846,133.325 551.5,134.5C 551.906,125.826 552.073,117.159 552,108.5C 548.294,101.864 543.461,100.864 537.5,105.5C 537.5,104.167 537.5,102.833 537.5,101.5C 537.5,99.5 537.5,97.5 537.5,95.5C 537.771,93.6203 537.104,92.287 535.5,91.5C 535.389,90.8826 535.056,90.3826 534.5,90C 505.502,89.5 476.502,89.3334 447.5,89.5C 447.5,87.5 447.5,85.5 447.5,83.5C 460.5,83.5 473.5,83.5 486.5,83.5C 502.17,83.6666 517.837,83.4999 533.5,83C 537.19,80.8307 538.857,77.664 538.5,73.5 Z"/></g>
<g><path style="opacity:1" fill="#898989" d="M 1190.5,74.5 C 1179.02,77.3784 1167.35,79.2118 1155.5,80C 1152.11,80.7977 1148.77,81.7977 1145.5,83C 1143.18,85.5968 1140.68,88.0968 1138,90.5C 1137.51,92.1341 1137.34,93.8008 1137.5,95.5C 1137.5,103.5 1137.5,111.5 1137.5,119.5C 1137.5,120.833 1137.5,122.167 1137.5,123.5C 1136.83,110.167 1136.17,96.8333 1135.5,83.5C 1135.83,82.5 1136.5,81.8333 1137.5,81.5C 1142.65,77.9464 1148.31,75.4464 1154.5,74C 1166.49,72.0257 1178.49,70.1924 1190.5,68.5C 1190.5,70.5 1190.5,72.5 1190.5,74.5 Z"/></g>
<g><path style="opacity:1" fill="#a1a1a1" d="M 1241.5,58.5 C 1245.08,60.3182 1248.75,60.6515 1252.5,59.5C 1253.18,65.6 1250.51,70.1 1244.5,73C 1237.25,75.5881 1229.91,77.0881 1222.5,77.5C 1221.26,75.351 1220.26,73.0177 1219.5,70.5C 1225.38,69.0985 1231.38,67.2651 1237.5,65C 1239.73,63.3621 1241.07,61.1955 1241.5,58.5 Z"/></g>
<g><path style="opacity:0.271" fill="#010000" d="M 392.5,75.5 C 392.5,76.5 392.5,77.5 392.5,78.5C 392.5,83.5 392.5,88.5 392.5,93.5C 392.5,95.1667 392.5,96.8333 392.5,98.5C 392.5,102.833 392.5,107.167 392.5,111.5C 391.878,112.627 391.045,113.627 390,114.5C 387.599,113.398 385.099,113.231 382.5,114C 376.412,115.752 370.245,117.252 364,118.5C 361.9,116.4 359.733,114.233 357.5,112C 348.48,108.39 339.814,109.223 331.5,114.5C 330.561,107.931 326.895,103.931 320.5,102.5C 315.155,104.353 310.155,106.853 305.5,110C 294.544,111.319 283.544,111.819 272.5,111.5C 272.5,107.833 272.5,104.167 272.5,100.5C 294.673,100.831 316.673,100.497 338.5,99.5C 342.122,99.678 345.456,99.0114 348.5,97.5C 351.542,97.2671 354.208,96.2671 356.5,94.5C 360.392,92.9379 363.725,90.6046 366.5,87.5C 370.194,84.4729 373.527,81.1396 376.5,77.5C 381.675,75.9147 387.009,75.2481 392.5,75.5 Z"/></g>
<g><path style="opacity:0.329" fill="#020101" d="M 789.5,75.5 C 793.698,76.2672 797.698,77.6005 801.5,79.5C 796.829,83.8786 796.163,88.8786 799.5,94.5C 800.559,97.6179 801.892,100.618 803.5,103.5C 804.512,104.872 805.512,106.205 806.5,107.5C 809.5,110.833 812.5,114.167 815.5,117.5C 806.945,125.722 796.945,131.389 785.5,134.5C 785.5,131.833 785.5,129.167 785.5,126.5C 786.794,125.71 787.961,124.71 789,123.5C 789.5,116.842 789.666,110.175 789.5,103.5C 789.5,100.167 789.5,96.8333 789.5,93.5C 789.5,89.5 789.5,85.5 789.5,81.5C 789.5,79.5 789.5,77.5 789.5,75.5 Z"/></g>
<g><path style="opacity:0.162" fill="#010100" d="M 734.5,77.5 C 734.5,78.8333 734.5,80.1667 734.5,81.5C 734.5,85.5 734.5,89.5 734.5,93.5C 734.5,94.8333 734.5,96.1667 734.5,97.5C 734.5,99.1667 734.5,100.833 734.5,102.5C 734.5,107.167 734.5,111.833 734.5,116.5C 729.833,119.833 725.167,123.167 720.5,126.5C 721.014,124.634 721.68,122.8 722.5,121C 720.984,118.659 719.317,116.492 717.5,114.5C 714.848,110.518 711.848,106.851 708.5,103.5C 706.416,99.6641 704.083,95.9974 701.5,92.5C 703.389,91.396 705.055,90.0627 706.5,88.5C 710.194,85.4729 713.527,82.1396 716.5,78.5C 717.997,79.3058 719.664,79.9724 721.5,80.5C 725.801,79.3413 730.134,78.3413 734.5,77.5 Z"/></g>
<g><path style="opacity:1" fill="#a2a2a2" d="M 1190.5,74.5 C 1190.5,82.1667 1190.5,89.8333 1190.5,97.5C 1184.53,95.1038 1180.19,96.7705 1177.5,102.5C 1173.87,102.16 1170.54,102.994 1167.5,105C 1159.93,113.071 1151.93,120.571 1143.5,127.5C 1140.71,127.378 1138.71,126.044 1137.5,123.5C 1137.5,122.167 1137.5,120.833 1137.5,119.5C 1150.46,112.866 1160.13,102.866 1166.5,89.5C 1165.53,87.3635 1163.86,86.1968 1161.5,86C 1151.84,84.9983 1143.84,88.165 1137.5,95.5C 1137.34,93.8008 1137.51,92.1341 1138,90.5C 1140.68,88.0968 1143.18,85.5968 1145.5,83C 1148.77,81.7977 1152.11,80.7977 1155.5,80C 1167.35,79.2118 1179.02,77.3784 1190.5,74.5 Z"/></g>
<g><path style="opacity:0.263" fill="#030301" d="M 1330.5,84.5 C 1330.8,86.403 1331.46,88.0697 1332.5,89.5C 1333.56,92.6223 1334.89,95.6223 1336.5,98.5C 1336.5,98.8333 1336.5,99.1667 1336.5,99.5C 1337.44,101.05 1338.11,102.716 1338.5,104.5C 1329.55,104.805 1321.89,108.138 1315.5,114.5C 1314.58,113.873 1313.58,113.539 1312.5,113.5C 1311.31,111.025 1311.65,108.691 1313.5,106.5C 1313.83,105.833 1314.17,105.167 1314.5,104.5C 1315.69,102.249 1316.69,99.9154 1317.5,97.5C 1318.44,95.9505 1319.11,94.2838 1319.5,92.5C 1320.67,91.4863 1321.34,90.153 1321.5,88.5C 1322.77,86.2872 1323.77,83.9538 1324.5,81.5C 1325.31,80.5707 1326.15,79.5707 1327,78.5C 1327.94,80.7274 1329.11,82.7274 1330.5,84.5 Z"/></g>
<g><path style="opacity:0.999" fill="#eeeeee" d="M 1430.5,80.5 C 1429.74,82.3684 1428.74,84.0351 1427.5,85.5C 1410.73,84.0091 1394.06,85.1758 1377.5,89C 1370.32,92.5108 1362.82,95.0108 1355,96.5C 1347.27,94.886 1339.77,92.5526 1332.5,89.5C 1331.46,88.0697 1330.8,86.403 1330.5,84.5C 1338.78,86.3865 1346.95,88.7199 1355,91.5C 1364.71,88.2248 1374.55,85.3915 1384.5,83C 1399.76,80.1362 1415.09,79.3029 1430.5,80.5 Z"/></g>
<g><path style="opacity:1" fill="#d7d7d7" d="M 1603.5,98.5 C 1604.34,98.8417 1604.67,99.5084 1604.5,100.5C 1604.21,101.649 1603.38,102.316 1602,102.5C 1590.12,104.397 1578.28,106.564 1566.5,109C 1558.54,110.95 1551.71,109.117 1546,103.5C 1543.2,98.7372 1540.04,94.2372 1536.5,90C 1529.7,85.0098 1522.03,82.5098 1513.5,82.5C 1493.41,84.3505 1474.08,89.1838 1455.5,97C 1453.5,97.1667 1451.5,97.3333 1449.5,97.5C 1447.05,97.4609 1445.05,96.7943 1443.5,95.5C 1443.66,93.847 1444.33,92.5137 1445.5,91.5C 1446.33,92.7479 1447.67,93.4146 1449.5,93.5C 1450.83,93.3333 1452.17,93.1667 1453.5,93C 1473.13,85.107 1493.46,79.9403 1514.5,77.5C 1529.8,78.3143 1540.64,85.6477 1547,99.5C 1552,106.023 1558.5,108.19 1566.5,106C 1579.01,103.697 1591.35,101.197 1603.5,98.5 Z"/></g>
<g><path style="opacity:1" fill="#f1f1f1" d="M 219.5,79.5 C 229.156,80.9981 238.823,82.4981 248.5,84C 259.468,85.4153 270.468,85.7487 281.5,85C 291.348,82.3305 301.348,80.4971 311.5,79.5C 325.249,81.5202 338.916,84.0202 352.5,87C 357.155,87.4992 361.821,87.6658 366.5,87.5C 363.725,90.6046 360.392,92.9379 356.5,94.5C 341.569,91.7809 326.569,89.4476 311.5,87.5C 302.017,88.0369 292.684,89.5369 283.5,92C 261.895,93.2103 240.561,91.3769 219.5,86.5C 219.5,84.1667 219.5,81.8333 219.5,79.5 Z"/></g>
<g><path style="opacity:1" fill="#c4c4c4" d="M 1604.5,100.5 C 1605.67,101.514 1606.34,102.847 1606.5,104.5C 1606.5,105.5 1606.5,106.5 1606.5,107.5C 1590.18,110.387 1573.85,113.387 1557.5,116.5C 1555.87,115.954 1554.2,115.62 1552.5,115.5C 1551.31,112.948 1549.97,110.448 1548.5,108C 1544.51,107.501 1540.51,107.334 1536.5,107.5C 1539.33,97.6721 1535.67,92.6721 1525.5,92.5C 1526.26,91.7321 1527.26,91.2321 1528.5,91C 1526.28,89.7246 1523.95,88.7246 1521.5,88C 1498.5,87.7999 1476.5,92.4666 1455.5,102C 1451.17,102.667 1446.83,102.667 1442.5,102C 1441.75,101.329 1441.41,100.496 1441.5,99.5C 1441.66,97.847 1442.33,96.5137 1443.5,95.5C 1445.05,96.7943 1447.05,97.4609 1449.5,97.5C 1451.5,97.3333 1453.5,97.1667 1455.5,97C 1474.08,89.1838 1493.41,84.3505 1513.5,82.5C 1522.03,82.5098 1529.7,85.0098 1536.5,90C 1540.04,94.2372 1543.2,98.7372 1546,103.5C 1551.71,109.117 1558.54,110.95 1566.5,109C 1578.28,106.564 1590.12,104.397 1602,102.5C 1603.38,102.316 1604.21,101.649 1604.5,100.5 Z"/></g>
<g><path style="opacity:0.006" fill="#000000" d="M 855.5,83.5 C 865.515,84.4683 875.515,85.635 885.5,87C 888.174,87.6701 890.507,88.8368 892.5,90.5C 884.164,91.6215 875.831,91.4548 867.5,90C 862.712,89.109 858.712,86.9423 855.5,83.5 Z"/></g>
<g><path style="opacity:0.468" fill="#020200" d="M 1135.5,83.5 C 1136.17,96.8333 1136.83,110.167 1137.5,123.5C 1138.71,126.044 1140.71,127.378 1143.5,127.5C 1147.04,127.187 1150.38,127.521 1153.5,128.5C 1140.6,139.618 1125.94,147.618 1109.5,152.5C 1108.34,149.216 1108.18,145.882 1109,142.5C 1114.59,121.319 1123.43,101.653 1135.5,83.5 Z"/></g>
<g><path style="opacity:1" fill="#eaeaea" d="M 706.5,88.5 C 705.055,90.0627 703.389,91.396 701.5,92.5C 700.85,92.8039 700.183,93.1373 699.5,93.5C 696.344,91.8368 693.011,90.6701 689.5,90C 682.833,89.3333 676.167,89.3333 669.5,90C 660.751,92.0206 652.084,94.354 643.5,97C 640.833,97.1667 638.167,97.3333 635.5,97.5C 624.67,95.616 613.837,93.616 603,91.5C 592.509,92.6645 582.342,95.1645 572.5,99C 567.748,99.7734 563.081,99.6068 558.5,98.5C 558.5,95.5 558.5,92.5 558.5,89.5C 561.111,91.4815 564.111,92.4815 567.5,92.5C 576.463,90.2358 585.463,88.0692 594.5,86C 600.833,85.3333 607.167,85.3333 613.5,86C 620.906,88.2469 628.406,90.0803 636,91.5C 646.261,89.4135 656.428,86.9135 666.5,84C 680.41,80.9497 693.743,82.4497 706.5,88.5 Z"/></g>
<g><path style="opacity:1" fill="#ebebeb" d="M 789.5,81.5 C 789.5,85.5 789.5,89.5 789.5,93.5C 788.596,94.209 788.263,95.209 788.5,96.5C 771.614,87.857 754.28,87.1904 736.5,94.5C 735.817,94.1373 735.15,93.8039 734.5,93.5C 734.5,89.5 734.5,85.5 734.5,81.5C 735.158,82.3984 735.824,83.3984 736.5,84.5C 753.273,78.5462 770.106,78.2129 787,83.5C 788.011,82.9444 788.844,82.2778 789.5,81.5 Z"/></g>
<g><path style="opacity:1" fill="#e1e1e1" d="M 219.5,86.5 C 240.561,91.3769 261.895,93.2103 283.5,92C 292.684,89.5369 302.017,88.0369 311.5,87.5C 326.569,89.4476 341.569,91.7809 356.5,94.5C 354.208,96.2671 351.542,97.2671 348.5,97.5C 336.138,94.4609 323.638,92.1276 311,90.5C 297.785,93.2763 284.452,95.2763 271,96.5C 253.713,95.4826 236.546,93.4826 219.5,90.5C 219.5,89.1667 219.5,87.8333 219.5,86.5 Z"/></g>
<g><path style="opacity:1" fill="#bbbbbb" d="M 1137.5,119.5 C 1137.5,111.5 1137.5,103.5 1137.5,95.5C 1143.84,88.165 1151.84,84.9983 1161.5,86C 1163.86,86.1968 1165.53,87.3635 1166.5,89.5C 1160.13,102.866 1150.46,112.866 1137.5,119.5 Z"/></g>
<g><path style="opacity:1" fill="#f9d301" d="M 219.5,103.5 C 236.441,107.877 253.774,110.544 271.5,111.5C 271.833,111.5 272.167,111.5 272.5,111.5C 283.544,111.819 294.544,111.319 305.5,110C 310.155,106.853 315.155,104.353 320.5,102.5C 326.895,103.931 330.561,107.931 331.5,114.5C 339.814,109.223 348.48,108.39 357.5,112C 359.733,114.233 361.9,116.4 364,118.5C 370.245,117.252 376.412,115.752 382.5,114C 385.099,113.231 387.599,113.398 390,114.5C 391.045,113.627 391.878,112.627 392.5,111.5C 395.926,109.924 399.26,108.091 402.5,106C 410.506,102.844 416.506,105.01 420.5,112.5C 420.632,115.57 420.299,118.57 419.5,121.5C 417.167,123.167 415.167,125.167 413.5,127.5C 407.195,131.625 400.195,133.625 392.5,133.5C 391.253,135.323 390.586,137.323 390.5,139.5C 404.561,138.7 417.561,134.7 429.5,127.5C 437.647,124.261 445.314,120.261 452.5,115.5C 453.017,111.296 454.35,107.296 456.5,103.5C 458.628,102.043 460.962,101.043 463.5,100.5C 469.042,100.094 472.708,102.427 474.5,107.5C 474.87,110.267 476.204,112.267 478.5,113.5C 482.685,117.205 484.685,121.872 484.5,127.5C 483.537,132.53 482.704,137.53 482,142.5C 485.424,137.978 488.591,133.311 491.5,128.5C 493.873,123.294 497.54,119.127 502.5,116C 507.196,116.484 510.863,114.817 513.5,111C 519.869,106.183 526.703,105.35 534,108.5C 534.765,108.43 535.265,108.097 535.5,107.5C 536.5,107.167 537.167,106.5 537.5,105.5C 543.461,100.864 548.294,101.864 552,108.5C 552.073,117.159 551.906,125.826 551.5,134.5C 556.846,133.325 561.846,131.325 566.5,128.5C 574.965,122.429 583.632,116.596 592.5,111C 596.952,110.14 600.452,111.64 603,115.5C 605.43,113.578 607.263,111.245 608.5,108.5C 610.332,107.752 611.999,106.752 613.5,105.5C 618.772,104.549 622.272,106.549 624,111.5C 624.171,116.533 624.671,121.533 625.5,126.5C 632.712,122.727 640.045,119.227 647.5,116C 651.06,114.763 654.727,114.263 658.5,114.5C 658.897,115.525 659.563,115.692 660.5,115C 667.207,107.05 675.374,104.883 685,108.5C 686.642,108.022 687.809,107.022 688.5,105.5C 698.056,101.107 703.056,104.107 703.5,114.5C 702.705,118.785 702.372,123.119 702.5,127.5C 702.5,129.833 702.5,132.167 702.5,134.5C 708.412,133.314 713.745,130.98 718.5,127.5C 719.167,127.167 719.833,126.833 720.5,126.5C 725.167,123.167 729.833,119.833 734.5,116.5C 737.079,115.772 739.746,115.272 742.5,115C 746.331,111.581 750.665,108.914 755.5,107C 759.812,106.226 763.978,106.726 768,108.5C 768.765,108.43 769.265,108.097 769.5,107.5C 771.372,105.396 773.705,104.063 776.5,103.5C 781.976,102.896 785.309,105.229 786.5,110.5C 786.02,115.822 785.687,121.155 785.5,126.5C 785.5,129.167 785.5,131.833 785.5,134.5C 796.945,131.389 806.945,125.722 815.5,117.5C 817.637,116.213 819.97,115.379 822.5,115C 827.582,107.878 832.915,107.711 838.5,114.5C 849.658,110.299 854.991,114.299 854.5,126.5C 859.236,122.814 863.903,119.147 868.5,115.5C 877.564,114.064 880.73,117.731 878,126.5C 875.955,127.926 873.788,128.926 871.5,129.5C 866.208,133.818 860.541,137.652 854.5,141C 851.036,141.817 847.702,141.483 844.5,140C 842.709,137.586 841.043,135.086 839.5,132.5C 836.978,134.856 834.312,137.023 831.5,139C 827.833,141 824.167,141 820.5,139C 819.695,137.028 818.361,135.528 816.5,134.5C 809.821,138.841 802.821,142.675 795.5,146C 778.912,151.439 770.745,145.273 771,127.5C 764.922,132.122 758.755,136.622 752.5,141C 743.272,147.027 736.272,145.194 731.5,135.5C 725.488,139.507 719.155,143.007 712.5,146C 695.912,151.439 687.745,145.273 688,127.5C 681.922,132.122 675.755,136.622 669.5,141C 657.175,147.675 650.508,144.175 649.5,130.5C 640.513,133.491 631.846,137.324 623.5,142C 618.231,161.372 609.398,178.872 597,194.5C 588.394,204.97 577.394,211.304 564,213.5C 555.992,213.336 550.326,209.669 547,202.5C 545.773,194.84 547.44,187.84 552,181.5C 567.658,162.417 586.492,147.25 608.5,136C 610.444,133.847 610.944,131.347 610,128.5C 606.845,130.719 603.345,132.052 599.5,132.5C 595.725,131.505 592.059,130.672 588.5,130C 579.995,136.089 570.995,141.422 561.5,146C 544.912,151.439 536.745,145.273 537,127.5C 530.922,132.122 524.755,136.622 518.5,141C 514.514,143.665 510.181,144.665 505.5,144C 502.785,142.826 500.452,141.492 498.5,140C 493.259,148.244 486.925,155.577 479.5,162C 470.346,166.589 465.679,163.756 465.5,153.5C 466.849,144.77 468.516,136.103 470.5,127.5C 469.426,125.784 467.759,124.784 465.5,124.5C 464.145,125.188 463.145,126.188 462.5,127.5C 448.622,133.104 434.955,139.271 421.5,146C 416.5,147.667 411.5,149.333 406.5,151C 397.951,154.517 389.618,154.184 381.5,150C 376.212,144.207 375.212,137.707 378.5,130.5C 378,130.167 377.5,129.833 377,129.5C 371.87,130.519 366.703,131.352 361.5,132C 357.519,136.25 353.519,140.584 349.5,145C 342.84,150.663 335.173,154.163 326.5,155.5C 322.334,155.417 319.001,153.751 316.5,150.5C 306.835,163.027 299.002,176.693 293,191.5C 291.155,194.183 288.655,195.85 285.5,196.5C 279.189,194.879 276.689,190.879 278,184.5C 284.817,165.37 292.317,146.537 300.5,128C 289.788,127.788 279.121,127.288 268.5,126.5C 252.071,124.391 235.737,121.724 219.5,118.5C 200.238,114.681 180.905,111.181 161.5,108C 129.353,102.936 97.0196,100.936 64.5,102C 61.7679,102.413 59.1013,103.08 56.5,104C 52.2616,108.631 48.0949,108.464 44,103.5C 41.9125,96.5865 44.4125,92.4198 51.5,91C 63.9255,89.1958 76.4255,88.3625 89,88.5C 132.981,89.3519 176.481,94.3519 219.5,103.5 Z"/></g>
<g><path style="opacity:1" fill="#e1e1e1" d="M 392.5,78.5 C 393.461,80.2646 393.795,82.2646 393.5,84.5C 398.511,84.3341 403.511,84.5007 408.5,85C 413.627,86.407 418.793,87.5737 424,88.5C 431.818,87.0108 439.318,84.5108 446.5,81C 452.5,80.3333 458.5,80.3333 464.5,81C 471.951,82.0171 479.285,82.8505 486.5,83.5C 473.5,83.5 460.5,83.5 447.5,83.5C 447.5,85.5 447.5,87.5 447.5,89.5C 476.502,89.3334 505.502,89.5 534.5,90C 535.056,90.3826 535.389,90.8826 535.5,91.5C 530.349,92.3267 525.016,92.8267 519.5,93C 509.427,95.9137 499.261,98.4137 489,100.5C 486.102,100.363 483.269,99.8632 480.5,99C 473.041,94.0155 464.875,91.1822 456,90.5C 453.833,90.6667 451.667,90.8333 449.5,91C 441.588,94.4585 433.588,97.6252 425.5,100.5C 419.438,98.9801 413.438,97.1468 407.5,95C 402.882,94.006 398.215,93.506 393.5,93.5C 393.167,93.5 392.833,93.5 392.5,93.5C 392.5,88.5 392.5,83.5 392.5,78.5 Z"/></g>
<g><path style="opacity:1" fill="#d5d5d5" d="M 701.5,92.5 C 704.083,95.9974 706.416,99.6641 708.5,103.5C 708.44,104.043 708.107,104.376 707.5,104.5C 698.857,98.7635 689.357,95.4301 679,94.5C 668.582,95.8131 658.416,98.1464 648.5,101.5C 647.833,101.5 647.5,101.167 647.5,100.5C 636.346,99.5052 625.012,99.1719 613.5,99.5C 608.41,97.7583 603.077,97.2583 597.5,98C 588.947,99.5173 580.613,101.851 572.5,105C 568.105,106.09 563.772,106.257 559.5,105.5C 559.5,104.833 559.167,104.5 558.5,104.5C 558.5,102.5 558.5,100.5 558.5,98.5C 563.081,99.6068 567.748,99.7734 572.5,99C 582.342,95.1645 592.509,92.6645 603,91.5C 613.837,93.616 624.67,95.616 635.5,97.5C 638.167,97.3333 640.833,97.1667 643.5,97C 652.084,94.354 660.751,92.0206 669.5,90C 676.167,89.3333 682.833,89.3333 689.5,90C 693.011,90.6701 696.344,91.8368 699.5,93.5C 700.183,93.1373 700.85,92.8039 701.5,92.5 Z"/></g>
<g><path style="opacity:1" fill="#d7d7d7" d="M 1427.5,85.5 C 1426.83,87.5 1426.17,89.5 1425.5,91.5C 1411.78,90.5216 1398.11,91.3549 1384.5,94C 1374.57,97.4665 1364.57,100.633 1354.5,103.5C 1348.35,102.227 1342.35,100.56 1336.5,98.5C 1334.89,95.6223 1333.56,92.6223 1332.5,89.5C 1339.77,92.5526 1347.27,94.886 1355,96.5C 1362.82,95.0108 1370.32,92.5108 1377.5,89C 1394.06,85.1758 1410.73,84.0091 1427.5,85.5 Z"/></g>
<g><path style="opacity:1" fill="#d7d7d7" d="M 788.5,96.5 C 788.785,98.288 788.452,99.9547 787.5,101.5C 770.771,91.5328 753.604,90.8662 736,99.5C 735.722,98.5842 735.222,97.9175 734.5,97.5C 734.5,96.1667 734.5,94.8333 734.5,93.5C 735.15,93.8039 735.817,94.1373 736.5,94.5C 754.28,87.1904 771.614,87.857 788.5,96.5 Z"/></g>
<g><path style="opacity:1" fill="#a7a7a7" d="M 1525.5,92.5 C 1523.14,92.6741 1520.81,93.0074 1518.5,93.5C 1514.35,92.353 1510.02,92.1864 1505.5,93C 1487.49,95.7826 1470.16,100.783 1453.5,108C 1449.83,108.667 1446.17,108.667 1442.5,108C 1440.68,107.8 1439.35,106.966 1438.5,105.5C 1438.99,103.181 1439.99,101.181 1441.5,99.5C 1441.41,100.496 1441.75,101.329 1442.5,102C 1446.83,102.667 1451.17,102.667 1455.5,102C 1476.5,92.4666 1498.5,87.7999 1521.5,88C 1523.95,88.7246 1526.28,89.7246 1528.5,91C 1527.26,91.2321 1526.26,91.7321 1525.5,92.5 Z"/></g>
<g><path style="opacity:1" fill="#cbcbcb" d="M 219.5,90.5 C 236.546,93.4826 253.713,95.4826 271,96.5C 284.452,95.2763 297.785,93.2763 311,90.5C 323.638,92.1276 336.138,94.4609 348.5,97.5C 345.456,99.0114 342.122,99.678 338.5,99.5C 316.167,99.5 293.833,99.5 271.5,99.5C 271.5,100.833 271.5,102.167 271.5,103.5C 253.971,103.091 236.638,101.091 219.5,97.5C 219.5,95.1667 219.5,92.8333 219.5,90.5 Z"/></g>
<g><path style="opacity:1" fill="#cbcbcb" d="M 535.5,91.5 C 537.104,92.287 537.771,93.6203 537.5,95.5C 530.807,94.0974 524.141,94.2641 517.5,96C 507.953,99.0164 498.287,101.516 488.5,103.5C 485.774,103.318 483.107,102.818 480.5,102C 474.736,98.7841 468.736,96.1175 462.5,94C 450.759,91.9309 440.759,95.0975 432.5,103.5C 430.667,103.833 428.833,104.167 427,104.5C 419.959,103.487 413.126,101.654 406.5,99C 402.23,97.9246 397.897,97.4246 393.5,97.5C 393.5,96.1667 393.5,94.8333 393.5,93.5C 398.215,93.506 402.882,94.006 407.5,95C 413.438,97.1468 419.438,98.9801 425.5,100.5C 433.588,97.6252 441.588,94.4585 449.5,91C 451.667,90.8333 453.833,90.6667 456,90.5C 464.875,91.1822 473.041,94.0155 480.5,99C 483.269,99.8632 486.102,100.363 489,100.5C 499.261,98.4137 509.427,95.9137 519.5,93C 525.016,92.8267 530.349,92.3267 535.5,91.5 Z"/></g>
<g><path style="opacity:0.999" fill="#e2e2e2" d="M 893.5,129.5 C 890.167,129.5 886.833,129.5 883.5,129.5C 883.646,115.809 876.979,107.643 863.5,105C 851.069,102.678 838.569,100.845 826,99.5C 818.359,100.129 810.859,101.462 803.5,103.5C 801.892,100.618 800.559,97.6179 799.5,94.5C 805.278,94.473 810.944,93.6397 816.5,92C 835.827,91.6097 854.827,93.943 873.5,99C 886.773,104.784 893.44,114.95 893.5,129.5 Z"/></g>
<g><path style="opacity:1" fill="#c1c1c1" d="M 1425.5,91.5 C 1424.83,92.8333 1424.17,94.1667 1423.5,95.5C 1409.8,95.7073 1396.13,96.5407 1382.5,98C 1373.67,102.916 1364.34,106.416 1354.5,108.5C 1349.26,108.419 1344.59,106.752 1340.5,103.5C 1341.38,102.749 1342.38,102.249 1343.5,102C 1341.35,100.589 1339.02,99.7553 1336.5,99.5C 1336.5,99.1667 1336.5,98.8333 1336.5,98.5C 1342.35,100.56 1348.35,102.227 1354.5,103.5C 1364.57,100.633 1374.57,97.4665 1384.5,94C 1398.11,91.3549 1411.78,90.5216 1425.5,91.5 Z"/></g>
<g><path style="opacity:1" fill="#ababa9" d="M 1016.5,90.5 C 1026.99,92.8224 1037.49,95.489 1048,98.5C 1055.98,98.1314 1063.48,96.1314 1070.5,92.5C 1070.5,95.8333 1070.5,99.1667 1070.5,102.5C 1059.46,104.74 1048.46,105.74 1037.5,105.5C 1037.67,97.9022 1034,95.0688 1026.5,97C 1024.31,98.025 1022.65,99.525 1021.5,101.5C 1019.71,100.767 1018.04,99.7671 1016.5,98.5C 1016.5,95.8333 1016.5,93.1667 1016.5,90.5 Z"/></g>
<g><path style="opacity:1" fill="#bababa" d="M 392.5,93.5 C 392.833,93.5 393.167,93.5 393.5,93.5C 393.5,94.8333 393.5,96.1667 393.5,97.5C 397.897,97.4246 402.23,97.9246 406.5,99C 413.126,101.654 419.959,103.487 427,104.5C 428.833,104.167 430.667,103.833 432.5,103.5C 440.759,95.0975 450.759,91.9309 462.5,94C 468.736,96.1175 474.736,98.7841 480.5,102C 483.107,102.818 485.774,103.318 488.5,103.5C 498.287,101.516 507.953,99.0164 517.5,96C 524.141,94.2641 530.807,94.0974 537.5,95.5C 537.5,97.5 537.5,99.5 537.5,101.5C 524.245,100.653 511.578,102.82 499.5,108C 495.471,108.303 491.471,108.803 487.5,109.5C 483.253,108.685 479.086,107.685 475,106.5C 474.601,106.728 474.435,107.062 474.5,107.5C 472.708,102.427 469.042,100.094 463.5,100.5C 462.77,98.955 461.437,98.1216 459.5,98C 456.833,97.3333 454.167,97.3333 451.5,98C 444.323,100.211 437.323,102.877 430.5,106C 428.833,106.167 427.167,106.333 425.5,106.5C 418.916,105.584 412.583,103.751 406.5,101C 402.288,99.7592 398.121,99.5925 394,100.5C 393.722,99.5842 393.222,98.9175 392.5,98.5C 392.5,96.8333 392.5,95.1667 392.5,93.5 Z"/></g>
<g><path style="opacity:1" fill="#838381" d="M 1518.5,93.5 C 1514.26,95.6207 1509.93,97.7874 1505.5,100C 1501.62,100.158 1497.79,99.6582 1494,98.5C 1491.75,98.6313 1489.58,99.1313 1487.5,100C 1479.16,104.011 1471.66,109.177 1465,115.5C 1456.87,114.711 1448.7,114.211 1440.5,114C 1438.8,111.413 1437.8,108.579 1437.5,105.5C 1437.83,105.5 1438.17,105.5 1438.5,105.5C 1439.35,106.966 1440.68,107.8 1442.5,108C 1446.17,108.667 1449.83,108.667 1453.5,108C 1470.16,100.783 1487.49,95.7826 1505.5,93C 1510.02,92.1864 1514.35,92.353 1518.5,93.5 Z"/></g>
<g><path style="opacity:1" fill="#fcd60d" d="M 1037.5,105.5 C 1037.17,106.833 1036.83,108.167 1036.5,109.5C 1027.35,114.26 1022.35,111.593 1021.5,101.5C 1022.65,99.525 1024.31,98.025 1026.5,97C 1034,95.0688 1037.67,97.9022 1037.5,105.5 Z"/></g>
<g><path style="opacity:1" fill="#f9d307" d="M 1190.5,97.5 C 1190.83,97.5 1191.17,97.5 1191.5,97.5C 1195.5,101.833 1195.5,106.167 1191.5,110.5C 1183.15,113.911 1178.48,111.245 1177.5,102.5C 1180.19,96.7705 1184.53,95.1038 1190.5,97.5 Z"/></g>
<g><path style="opacity:1" fill="#bebdbd" d="M 788.5,96.5 C 788.263,95.209 788.596,94.209 789.5,93.5C 789.5,96.8333 789.5,100.167 789.5,103.5C 789.083,106.159 788.083,108.492 786.5,110.5C 785.309,105.229 781.976,102.896 776.5,103.5C 776.918,102.778 777.584,102.278 778.5,102C 770.49,98.6636 762.157,97.6636 753.5,99C 747.404,100.2 741.404,101.7 735.5,103.5C 735.5,102.833 735.167,102.5 734.5,102.5C 734.5,100.833 734.5,99.1667 734.5,97.5C 735.222,97.9175 735.722,98.5842 736,99.5C 753.604,90.8662 770.771,91.5328 787.5,101.5C 788.452,99.9547 788.785,98.288 788.5,96.5 Z"/></g>
<g><path style="opacity:1" fill="#b9b9b9" d="M 1230.5,96.5 C 1239.8,97.6617 1249.13,98.4951 1258.5,99C 1267.19,101.548 1276.02,103.381 1285,104.5C 1296.1,103.132 1306.94,100.799 1317.5,97.5C 1316.69,99.9154 1315.69,102.249 1314.5,104.5C 1309.16,105.891 1303.82,107.391 1298.5,109C 1291.5,109.667 1284.5,109.667 1277.5,109C 1267.32,106.903 1257.32,104.236 1247.5,101C 1242.51,100.501 1237.51,100.334 1232.5,100.5C 1231.83,99.1667 1231.17,97.8333 1230.5,96.5 Z"/></g>
<g><path style="opacity:0.449" fill="#555555" d="M 338.5,99.5 C 316.673,100.497 294.673,100.831 272.5,100.5C 272.5,104.167 272.5,107.833 272.5,111.5C 272.167,111.5 271.833,111.5 271.5,111.5C 271.5,108.833 271.5,106.167 271.5,103.5C 271.5,102.167 271.5,100.833 271.5,99.5C 293.833,99.5 316.167,99.5 338.5,99.5 Z"/></g>
<g><path style="opacity:0.38" fill="#040301" d="M 647.5,100.5 C 647.5,101.167 647.833,101.5 648.5,101.5C 649.701,103.909 651.367,105.909 653.5,107.5C 654.779,110.112 656.445,112.445 658.5,114.5C 654.727,114.263 651.06,114.763 647.5,116C 640.045,119.227 632.712,122.727 625.5,126.5C 624.671,121.533 624.171,116.533 624,111.5C 622.272,106.549 618.772,104.549 613.5,105.5C 613.5,103.833 613.5,102.167 613.5,100.5C 624.833,100.5 636.167,100.5 647.5,100.5 Z"/></g>
<g><path style="opacity:1" fill="#a2a2a1" d="M 776.5,103.5 C 773.705,104.063 771.372,105.396 769.5,107.5C 769.082,106.778 768.416,106.278 767.5,106C 756.697,104.721 746.363,106.221 736.5,110.5C 735.526,108.257 735.192,105.924 735.5,103.5C 741.404,101.7 747.404,100.2 753.5,99C 762.157,97.6636 770.49,98.6636 778.5,102C 777.584,102.278 776.918,102.778 776.5,103.5 Z"/></g>
<g><path style="opacity:1" fill="#a5a4a3" d="M 463.5,100.5 C 460.962,101.043 458.628,102.043 456.5,103.5C 453.482,103.335 450.482,103.502 447.5,104C 442.076,107.379 436.409,110.212 430.5,112.5C 427.167,113.7 423.833,113.7 420.5,112.5C 416.506,105.01 410.506,102.844 402.5,106C 399.26,108.091 395.926,109.924 392.5,111.5C 392.5,107.167 392.5,102.833 392.5,98.5C 393.222,98.9175 393.722,99.5842 394,100.5C 398.121,99.5925 402.288,99.7592 406.5,101C 412.583,103.751 418.916,105.584 425.5,106.5C 427.167,106.333 428.833,106.167 430.5,106C 437.323,102.877 444.323,100.211 451.5,98C 454.167,97.3333 456.833,97.3333 459.5,98C 461.437,98.1216 462.77,98.955 463.5,100.5 Z"/></g>
<g><path style="opacity:1" fill="#b2b1b1" d="M 708.5,103.5 C 711.848,106.851 714.848,110.518 717.5,114.5C 716.359,115.339 715.026,116.006 713.5,116.5C 710.243,115.449 706.91,114.782 703.5,114.5C 703.056,104.107 698.056,101.107 688.5,105.5C 685.282,104.046 681.782,103.379 678,103.5C 669.753,104.438 661.586,105.771 653.5,107.5C 651.367,105.909 649.701,103.909 648.5,101.5C 658.416,98.1464 668.582,95.8131 679,94.5C 689.357,95.4301 698.857,98.7635 707.5,104.5C 708.107,104.376 708.44,104.043 708.5,103.5 Z"/></g>
<g><path style="opacity:1" fill="#bfbfbe" d="M 883.5,129.5 C 879.5,129.5 875.5,129.5 871.5,129.5C 873.788,128.926 875.955,127.926 878,126.5C 880.73,117.731 877.564,114.064 868.5,115.5C 866.961,113.471 864.961,111.971 862.5,111C 855.293,110.685 848.293,109.352 841.5,107C 829.819,106.365 818.152,106.531 806.5,107.5C 805.512,106.205 804.512,104.872 803.5,103.5C 810.859,101.462 818.359,100.129 826,99.5C 838.569,100.845 851.069,102.678 863.5,105C 876.979,107.643 883.646,115.809 883.5,129.5 Z"/></g>
<g><path style="opacity:1" fill="#a3a29f" d="M 219.5,97.5 C 236.638,101.091 253.971,103.091 271.5,103.5C 271.5,106.167 271.5,108.833 271.5,111.5C 253.774,110.544 236.441,107.877 219.5,103.5C 219.5,101.5 219.5,99.5 219.5,97.5 Z"/></g>
<g><path style="opacity:1" fill="#999999" d="M 537.5,101.5 C 537.5,102.833 537.5,104.167 537.5,105.5C 537.167,106.5 536.5,107.167 535.5,107.5C 535.082,106.778 534.416,106.278 533.5,106C 526.459,105.336 519.459,105.669 512.5,107C 507.399,109.547 502.066,111.547 496.5,113C 490.509,113.499 484.509,113.666 478.5,113.5C 476.204,112.267 474.87,110.267 474.5,107.5C 474.435,107.062 474.601,106.728 475,106.5C 479.086,107.685 483.253,108.685 487.5,109.5C 491.471,108.803 495.471,108.303 499.5,108C 511.578,102.82 524.245,100.653 537.5,101.5 Z"/></g>
<g><path style="opacity:1" fill="#969595" d="M 613.5,99.5 C 625.012,99.1719 636.346,99.5052 647.5,100.5C 636.167,100.5 624.833,100.5 613.5,100.5C 613.5,102.167 613.5,103.833 613.5,105.5C 611.999,106.752 610.332,107.752 608.5,108.5C 594.865,108.272 581.865,110.939 569.5,116.5C 566.232,117.487 562.898,117.82 559.5,117.5C 559.784,115.585 559.451,113.919 558.5,112.5C 558.5,109.833 558.5,107.167 558.5,104.5C 559.167,104.5 559.5,104.833 559.5,105.5C 559.338,107.527 559.505,109.527 560,111.5C 570.585,112.815 580.418,110.482 589.5,104.5C 596.861,103.201 604.194,103.201 611.5,104.5C 612.17,102.709 612.837,101.042 613.5,99.5 Z"/></g>
<g><path style="opacity:1" fill="#838382" d="M 1071.5,48.5 C 1071.5,66.5 1071.5,84.5 1071.5,102.5C 1068.83,104.5 1066.5,106.833 1064.5,109.5C 1055.91,111.173 1047.24,111.673 1038.5,111C 1037.58,110.722 1036.92,110.222 1036.5,109.5C 1036.83,108.167 1037.17,106.833 1037.5,105.5C 1048.46,105.74 1059.46,104.74 1070.5,102.5C 1070.5,99.1667 1070.5,95.8333 1070.5,92.5C 1070.17,77.6572 1070.5,62.9905 1071.5,48.5 Z"/></g>
<g><path style="opacity:1" fill="#999895" d="M 1232.5,100.5 C 1237.51,100.334 1242.51,100.501 1247.5,101C 1257.32,104.236 1267.32,106.903 1277.5,109C 1284.5,109.667 1291.5,109.667 1298.5,109C 1303.82,107.391 1309.16,105.891 1314.5,104.5C 1314.17,105.167 1313.83,105.833 1313.5,106.5C 1311.88,107.038 1310.22,107.371 1308.5,107.5C 1308.5,108.5 1308.5,109.5 1308.5,110.5C 1300.48,112.702 1292.48,114.369 1284.5,115.5C 1282.99,114.164 1281.32,112.997 1279.5,112C 1272.21,111.556 1266.04,114.056 1261,119.5C 1259.54,104.19 1252.38,100.857 1239.5,109.5C 1238.02,108.52 1236.69,107.353 1235.5,106C 1233.53,105.505 1231.53,105.338 1229.5,105.5C 1230.72,104.839 1232.05,104.172 1233.5,103.5C 1232.87,102.583 1232.54,101.583 1232.5,100.5 Z"/></g>
<g><path style="opacity:1" fill="#8d8d8b" d="M 1421.5,99.5 C 1419.22,104.394 1417.22,109.394 1415.5,114.5C 1414.87,112.097 1413.87,109.764 1412.5,107.5C 1408.42,103.607 1404.42,103.607 1400.5,107.5C 1394.93,103.361 1389.6,103.694 1384.5,108.5C 1377.79,110.686 1371.46,113.686 1365.5,117.5C 1359.23,119.446 1352.89,119.78 1346.5,118.5C 1346.5,116.5 1346.5,114.5 1346.5,112.5C 1351.88,113.995 1357.21,113.828 1362.5,112C 1369.38,108.725 1376.38,105.725 1383.5,103C 1396.07,100.71 1408.73,99.5434 1421.5,99.5 Z"/></g>
<g><path style="opacity:1" fill="#868581" d="M 688.5,105.5 C 687.809,107.022 686.642,108.022 685,108.5C 675.374,104.883 667.207,107.05 660.5,115C 659.563,115.692 658.897,115.525 658.5,114.5C 656.445,112.445 654.779,110.112 653.5,107.5C 661.586,105.771 669.753,104.438 678,103.5C 681.782,103.379 685.282,104.046 688.5,105.5 Z"/></g>
<g><path style="opacity:1" fill="#83817c" d="M 734.5,102.5 C 735.167,102.5 735.5,102.833 735.5,103.5C 735.192,105.924 735.526,108.257 736.5,110.5C 746.363,106.221 756.697,104.721 767.5,106C 768.416,106.278 769.082,106.778 769.5,107.5C 769.265,108.097 768.765,108.43 768,108.5C 763.978,106.726 759.812,106.226 755.5,107C 750.665,108.914 746.331,111.581 742.5,115C 739.746,115.272 737.079,115.772 734.5,116.5C 734.5,111.833 734.5,107.167 734.5,102.5 Z"/></g>
<g><path style="opacity:1" fill="#989795" d="M 868.5,115.5 C 863.903,119.147 859.236,122.814 854.5,126.5C 854.991,114.299 849.658,110.299 838.5,114.5C 832.915,107.711 827.582,107.878 822.5,115C 819.97,115.379 817.637,116.213 815.5,117.5C 812.5,114.167 809.5,110.833 806.5,107.5C 818.152,106.531 829.819,106.365 841.5,107C 848.293,109.352 855.293,110.685 862.5,111C 864.961,111.971 866.961,113.471 868.5,115.5 Z"/></g>
<g><path style="opacity:1" fill="#a8a8a8" d="M 1423.5,95.5 C 1422.83,96.8333 1422.17,98.1667 1421.5,99.5C 1408.73,99.5434 1396.07,100.71 1383.5,103C 1376.38,105.725 1369.38,108.725 1362.5,112C 1357.21,113.828 1351.88,113.995 1346.5,112.5C 1344.83,108.833 1342.17,106.167 1338.5,104.5C 1338.11,102.716 1337.44,101.05 1336.5,99.5C 1339.02,99.7553 1341.35,100.589 1343.5,102C 1342.38,102.249 1341.38,102.749 1340.5,103.5C 1344.59,106.752 1349.26,108.419 1354.5,108.5C 1364.34,106.416 1373.67,102.916 1382.5,98C 1396.13,96.5407 1409.8,95.7073 1423.5,95.5 Z"/></g>
<g><path style="opacity:0.464" fill="#050504" d="M 1536.5,107.5 C 1540.51,107.334 1544.51,107.501 1548.5,108C 1549.97,110.448 1551.31,112.948 1552.5,115.5C 1552.89,117.284 1553.56,118.95 1554.5,120.5C 1555.5,122.5 1556.5,124.5 1557.5,126.5C 1547.95,129.141 1538.28,130.974 1528.5,132C 1531.27,123.862 1533.93,115.696 1536.5,107.5 Z"/></g>
<g><path style="opacity:1" fill="#b3b3b3" d="M 613.5,99.5 C 612.837,101.042 612.17,102.709 611.5,104.5C 604.194,103.201 596.861,103.201 589.5,104.5C 580.418,110.482 570.585,112.815 560,111.5C 559.505,109.527 559.338,107.527 559.5,105.5C 563.772,106.257 568.105,106.09 572.5,105C 580.613,101.851 588.947,99.5173 597.5,98C 603.077,97.2583 608.41,97.7583 613.5,99.5 Z"/></g>
<g><path style="opacity:1" fill="#797876" d="M 535.5,107.5 C 535.265,108.097 534.765,108.43 534,108.5C 526.703,105.35 519.869,106.183 513.5,111C 510.863,114.817 507.196,116.484 502.5,116C 497.54,119.127 493.873,123.294 491.5,128.5C 489.393,127.532 487.059,127.198 484.5,127.5C 484.685,121.872 482.685,117.205 478.5,113.5C 484.509,113.666 490.509,113.499 496.5,113C 502.066,111.547 507.399,109.547 512.5,107C 519.459,105.669 526.459,105.336 533.5,106C 534.416,106.278 535.082,106.778 535.5,107.5 Z"/></g>
<g><path style="opacity:1" fill="#6f6e6c" d="M 1177.5,102.5 C 1178.48,111.245 1183.15,113.911 1191.5,110.5C 1191.67,114.846 1191.5,119.179 1191,123.5C 1189.55,125.464 1187.72,126.797 1185.5,127.5C 1189.46,122.999 1189.46,118.499 1185.5,114C 1179.79,112.43 1174.12,112.763 1168.5,115C 1163.93,120.078 1158.93,124.578 1153.5,128.5C 1150.38,127.521 1147.04,127.187 1143.5,127.5C 1151.93,120.571 1159.93,113.071 1167.5,105C 1170.54,102.994 1173.87,102.16 1177.5,102.5 Z"/></g>
<g><path style="opacity:1" fill="#6e6d6c" d="M 1384.5,108.5 C 1383.85,110.435 1383.52,112.435 1383.5,114.5C 1374.19,118.785 1364.86,123.119 1355.5,127.5C 1353.47,127.662 1351.47,127.495 1349.5,127C 1348.27,124.686 1346.93,122.519 1345.5,120.5C 1345.83,119.833 1346.17,119.167 1346.5,118.5C 1352.89,119.78 1359.23,119.446 1365.5,117.5C 1371.46,113.686 1377.79,110.686 1384.5,108.5 Z"/></g>
<g><path style="opacity:1" fill="#62615e" d="M 1016.5,98.5 C 1018.04,99.7671 1019.71,100.767 1021.5,101.5C 1022.35,111.593 1027.35,114.26 1036.5,109.5C 1036.92,110.222 1037.58,110.722 1038.5,111C 1047.24,111.673 1055.91,111.173 1064.5,109.5C 1063.77,110.708 1063.43,112.041 1063.5,113.5C 1061.35,113.372 1059.35,113.872 1057.5,115C 1051.45,119.685 1045.12,123.851 1038.5,127.5C 1035.5,127.5 1032.5,127.5 1029.5,127.5C 1032.35,124.408 1033.19,120.741 1032,116.5C 1026.84,111.221 1021.67,111.221 1016.5,116.5C 1016.5,110.5 1016.5,104.5 1016.5,98.5 Z"/></g>
<g><path style="opacity:1" fill="#62615f" d="M 452.5,115.5 C 445.314,120.261 437.647,124.261 429.5,127.5C 424.167,127.5 418.833,127.5 413.5,127.5C 415.167,125.167 417.167,123.167 419.5,121.5C 424.216,122.993 428.883,122.826 433.5,121C 439.658,118.088 445.658,114.921 451.5,111.5C 452.429,112.689 452.762,114.022 452.5,115.5 Z"/></g>
<g><path style="opacity:1" fill="#7b7b7a" d="M 456.5,103.5 C 454.35,107.296 453.017,111.296 452.5,115.5C 452.762,114.022 452.429,112.689 451.5,111.5C 445.658,114.921 439.658,118.088 433.5,121C 428.883,122.826 424.216,122.993 419.5,121.5C 420.299,118.57 420.632,115.57 420.5,112.5C 423.833,113.7 427.167,113.7 430.5,112.5C 436.409,110.212 442.076,107.379 447.5,104C 450.482,103.502 453.482,103.335 456.5,103.5 Z"/></g>
<g><path style="opacity:1" fill="#8b8a8a" d="M 1609.5,110.5 C 1610.74,111.965 1611.74,113.632 1612.5,115.5C 1594.21,118.758 1575.88,122.425 1557.5,126.5C 1556.5,124.5 1555.5,122.5 1554.5,120.5C 1572.14,117.741 1589.8,114.907 1607.5,112C 1608.42,111.722 1609.08,111.222 1609.5,110.5 Z"/></g>
<g><path style="opacity:1" fill="#787673" d="M 1313.5,106.5 C 1311.65,108.691 1311.31,111.025 1312.5,113.5C 1310.8,113.34 1309.13,113.506 1307.5,114C 1301.29,117.701 1294.96,121.201 1288.5,124.5C 1287.16,121.48 1285.83,118.48 1284.5,115.5C 1292.48,114.369 1300.48,112.702 1308.5,110.5C 1308.5,109.5 1308.5,108.5 1308.5,107.5C 1310.22,107.371 1311.88,107.038 1313.5,106.5 Z"/></g>
<g><path style="opacity:1" fill="#a5a5a5" d="M 1606.5,104.5 C 1608.01,106.181 1609.01,108.181 1609.5,110.5C 1609.08,111.222 1608.42,111.722 1607.5,112C 1589.8,114.907 1572.14,117.741 1554.5,120.5C 1553.56,118.95 1552.89,117.284 1552.5,115.5C 1554.2,115.62 1555.87,115.954 1557.5,116.5C 1573.85,113.387 1590.18,110.387 1606.5,107.5C 1606.5,106.5 1606.5,105.5 1606.5,104.5 Z"/></g>
<g><path style="opacity:1" fill="#7d7c7a" d="M 608.5,108.5 C 607.263,111.245 605.43,113.578 603,115.5C 600.452,111.64 596.952,110.14 592.5,111C 583.632,116.596 574.965,122.429 566.5,128.5C 558.969,125.989 556.302,120.656 558.5,112.5C 559.451,113.919 559.784,115.585 559.5,117.5C 562.898,117.82 566.232,117.487 569.5,116.5C 581.865,110.939 594.865,108.272 608.5,108.5 Z"/></g>
<g><path style="opacity:1" fill="#727170" d="M 789.5,103.5 C 789.666,110.175 789.5,116.842 789,123.5C 787.961,124.71 786.794,125.71 785.5,126.5C 785.687,121.155 786.02,115.822 786.5,110.5C 788.083,108.492 789.083,106.159 789.5,103.5 Z"/></g>
<g><path style="opacity:1" fill="#666665" d="M 219.5,118.5 C 235.737,121.724 252.071,124.391 268.5,126.5C 253.005,127.661 237.339,127.828 221.5,127C 219.686,124.519 219.02,121.685 219.5,118.5 Z"/></g>
<g><path style="opacity:0.999" fill="#747373" d="M 703.5,114.5 C 706.91,114.782 710.243,115.449 713.5,116.5C 715.026,116.006 716.359,115.339 717.5,114.5C 719.317,116.492 720.984,118.659 722.5,121C 721.68,122.8 721.014,124.634 720.5,126.5C 719.833,126.833 719.167,127.167 718.5,127.5C 713.167,127.5 707.833,127.5 702.5,127.5C 702.372,123.119 702.705,118.785 703.5,114.5 Z"/></g>
<g><path style="opacity:0.72" fill="#070501" d="M 1345.5,120.5 C 1346.93,122.519 1348.27,124.686 1349.5,127C 1351.47,127.495 1353.47,127.662 1355.5,127.5C 1343.56,134.7 1330.56,138.7 1316.5,139.5C 1316.59,137.323 1317.25,135.323 1318.5,133.5C 1330.11,134.192 1339.11,129.859 1345.5,120.5 Z"/></g>
<g><path style="opacity:1" fill="#4d4b47" d="M 470.5,127.5 C 467.833,127.5 465.167,127.5 462.5,127.5C 463.145,126.188 464.145,125.188 465.5,124.5C 467.759,124.784 469.426,125.784 470.5,127.5 Z"/></g>
<g><path style="opacity:1" fill="#5d5c59" d="M 1452.5,127.5 C 1445.8,127.83 1439.13,127.497 1432.5,126.5C 1432.12,124.787 1431.12,123.787 1429.5,123.5C 1429.81,122.522 1430.48,121.855 1431.5,121.5C 1433.71,123.774 1436.38,125.274 1439.5,126C 1444.02,126.175 1448.35,126.675 1452.5,127.5 Z"/></g>
<g><path style="opacity:0.735" fill="#070602" d="M 413.5,127.5 C 418.833,127.5 424.167,127.5 429.5,127.5C 417.561,134.7 404.561,138.7 390.5,139.5C 390.586,137.323 391.253,135.323 392.5,133.5C 400.195,133.625 407.195,131.625 413.5,127.5 Z"/></g>
<g><path style="opacity:0.726" fill="#0c0902" d="M 484.5,127.5 C 487.059,127.198 489.393,127.532 491.5,128.5C 488.591,133.311 485.424,137.978 482,142.5C 482.704,137.53 483.537,132.53 484.5,127.5 Z"/></g>
<g><path style="opacity:0.668" fill="#0a0906" d="M 702.5,127.5 C 707.833,127.5 713.167,127.5 718.5,127.5C 713.745,130.98 708.412,133.314 702.5,134.5C 702.5,132.167 702.5,129.833 702.5,127.5 Z"/></g>
<g><path style="opacity:0.74" fill="#090704" d="M 1029.5,127.5 C 1032.5,127.5 1035.5,127.5 1038.5,127.5C 1035.56,129.977 1032.23,131.977 1028.5,133.5C 1028.17,133.167 1027.83,132.833 1027.5,132.5C 1028.03,130.664 1028.69,128.997 1029.5,127.5 Z"/></g>
<g><path style="opacity:0.747" fill="#050400" d="M 603.5,152.5 C 604.376,152.369 605.043,152.702 605.5,153.5C 600.882,165.406 594.715,176.406 587,186.5C 580.756,193.871 572.923,198.537 563.5,200.5C 558.254,199.672 557.087,197.005 560,192.5C 565.379,184.114 571.879,176.614 579.5,170C 587.402,163.917 595.402,158.083 603.5,152.5 Z"/></g>
</svg>
